<svg width="58" height="46" viewBox="0 0 58 46" fill="none" xmlns="http://www.w3.org/2000/svg">
<g filter="url(#filter0_b_414_1790)">
<path fill-rule="evenodd" clip-rule="evenodd" d="M3.97775 43.6682C1.44967 39.3649 0 34.3517 0 29C0 12.9837 12.9837 0 29 0C32.8031 0 36.4352 0.732075 39.7631 2.06299C39.0004 2.47655 38.3387 3.09931 37.873 3.90582C37.2775 4.93734 37.1026 6.09629 37.2952 7.18403C34.7181 6.20376 31.9224 5.66699 29.0013 5.66699C16.1147 5.66699 5.66797 16.1137 5.66797 29.0003C5.66797 33.1876 6.77095 37.1173 8.70224 40.5147C8.73505 40.5642 8.76653 40.615 8.79661 40.6671C9.57948 42.023 9.11489 43.7569 7.75893 44.5397C6.45814 45.2907 4.80958 44.8938 3.98644 43.6631L3.97775 43.6682ZM43.7432 10.9129C48.9866 15.1916 52.3346 21.705 52.3346 29.0003C52.3346 33.1936 51.2285 37.1285 49.2921 40.5293C49.2627 40.5741 49.2344 40.62 49.2073 40.6671C48.4244 42.023 48.889 43.7569 50.245 44.5397C51.5452 45.2904 53.1929 44.8941 54.0164 43.6648L54.0223 43.6682C56.5503 39.3649 58 34.3517 58 29C58 19.7619 53.6804 11.5328 46.9509 6.22205C46.9724 7.08643 46.7637 7.96739 46.2998 8.771C45.703 9.80467 44.7842 10.5365 43.7432 10.9129Z" fill="#81D4DF"/>
</g>
<circle cx="2.835" cy="2.835" r="2.835" transform="matrix(0.5 -0.866025 -0.866025 -0.5 43.125 10.2109)" fill="#81D4DF"/>
<path d="M20.4781 37.9934C19.1615 37.9934 18.0531 37.7517 17.1531 37.2684C16.2531 36.785 15.5281 36.135 14.9781 35.3184C14.4281 34.5017 14.0281 33.5934 13.7781 32.5934C13.5448 31.5934 13.4281 30.5684 13.4281 29.5184C13.4281 27.5684 13.7031 25.8767 14.2531 24.4434C14.8031 22.9934 15.5948 21.8767 16.6281 21.0934C17.6615 20.2934 18.9115 19.8934 20.3781 19.8934C21.5781 19.8934 22.5948 20.135 23.4281 20.6184C24.2781 21.085 24.9365 21.7017 25.4031 22.4684C25.8698 23.235 26.1448 24.06 26.2281 24.9434H23.2531C23.1031 24.1767 22.7781 23.585 22.2781 23.1684C21.7781 22.7517 21.1365 22.5434 20.3531 22.5434C19.2365 22.5434 18.3365 23.06 17.6531 24.0934C16.9698 25.11 16.6031 26.6684 16.5531 28.7684C16.9531 28.085 17.5531 27.5184 18.3531 27.0684C19.1531 26.6184 20.0448 26.3934 21.0281 26.3934C21.9948 26.3934 22.9031 26.6267 23.7531 27.0934C24.6031 27.56 25.2865 28.2184 25.8031 29.0684C26.3365 29.9184 26.6031 30.9184 26.6031 32.0684C26.6031 33.1184 26.3448 34.0934 25.8281 34.9934C25.3281 35.8934 24.6115 36.6184 23.6781 37.1684C22.7615 37.7184 21.6948 37.9934 20.4781 37.9934ZM20.3031 35.2434C21.2365 35.2434 22.0031 34.96 22.6031 34.3934C23.2198 33.81 23.5281 33.0767 23.5281 32.1934C23.5281 31.26 23.2198 30.51 22.6031 29.9434C21.9865 29.3767 21.2031 29.0934 20.2531 29.0934C19.6365 29.0934 19.0781 29.235 18.5781 29.5184C18.0948 29.785 17.7115 30.1517 17.4281 30.6184C17.1448 31.0684 17.0031 31.5767 17.0031 32.1434C17.0031 33.0434 17.3115 33.785 17.9281 34.3684C18.5615 34.9517 19.3531 35.2434 20.3031 35.2434ZM36.9229 37.9934C35.3062 37.9934 33.9229 37.6184 32.7729 36.8684C31.6229 36.1017 30.7312 35.0434 30.0979 33.6934C29.4812 32.3267 29.1729 30.7434 29.1729 28.9434C29.1729 27.16 29.4812 25.585 30.0979 24.2184C30.7312 22.8517 31.6229 21.7934 32.7729 21.0434C33.9229 20.2767 35.3062 19.8934 36.9229 19.8934C38.5395 19.8934 39.9229 20.2767 41.0729 21.0434C42.2229 21.7934 43.1062 22.8517 43.7229 24.2184C44.3562 25.585 44.6729 27.16 44.6729 28.9434C44.6729 30.7434 44.3562 32.3267 43.7229 33.6934C43.1062 35.0434 42.2229 36.1017 41.0729 36.8684C39.9229 37.6184 38.5395 37.9934 36.9229 37.9934ZM36.9229 35.1184C38.2395 35.1184 39.3145 34.5684 40.1479 33.4684C40.9812 32.3684 41.3979 30.86 41.3979 28.9434C41.3979 27.0267 40.9812 25.5184 40.1479 24.4184C39.3145 23.3184 38.2395 22.7684 36.9229 22.7684C35.5895 22.7684 34.5062 23.3184 33.6729 24.4184C32.8562 25.5184 32.4479 27.0267 32.4479 28.9434C32.4479 30.86 32.8562 32.3684 33.6729 33.4684C34.5062 34.5684 35.5895 35.1184 36.9229 35.1184Z" fill="#81D4DF"/>
<defs>
<filter id="filter0_b_414_1790" x="-40" y="-40" width="138" height="124.92" filterUnits="userSpaceOnUse" color-interpolation-filters="sRGB">
<feFlood flood-opacity="0" result="BackgroundImageFix"/>
<feGaussianBlur in="BackgroundImageFix" stdDeviation="20"/>
<feComposite in2="SourceAlpha" operator="in" result="effect1_backgroundBlur_414_1790"/>
<feBlend mode="normal" in="SourceGraphic" in2="effect1_backgroundBlur_414_1790" result="shape"/>
</filter>
</defs>
</svg>
