<svg width="44" height="44" viewBox="0 0 44 44" fill="none" xmlns="http://www.w3.org/2000/svg">
<rect width="44" height="44" rx="10" fill="#F28600"/>
<g clip-path="url(#clip0_604_1882)">
<path d="M38.9718 13.7918C38.009 15.8131 36.4964 17.4575 35.0871 19.1701C34.3029 20.1234 33.4657 21.033 32.662 21.9726C32.5587 22.0928 32.4834 22.2758 32.4778 22.4315C32.3885 25.1576 31.5345 27.6323 29.8768 29.8175C27.647 32.7539 24.6777 34.5485 20.9744 35.1385C17.394 35.7093 14.1707 34.8243 11.2628 32.7648C10.2079 32.0191 9.37344 31.0631 8.96041 29.8312C8.37157 28.0748 8.73157 26.0535 10.5818 24.6795C11.0451 24.3354 11.5139 23.9994 11.9493 23.6252C13.0042 22.7183 13.007 21.3007 11.9576 20.3884C11.5307 20.0169 11.0702 19.6864 10.6125 19.3504C9.23111 18.3288 8.59483 16.9712 8.71762 15.2832C8.80134 14.1578 9.2953 13.1936 10.0404 12.3523C11.1986 11.0466 12.6832 10.2081 14.3018 9.58527C16.2302 8.84504 18.2228 8.52818 20.2879 8.77129C23.6507 9.16462 26.5056 10.555 28.8275 12.9669C29.9717 14.1578 30.8564 15.5154 31.4899 17.0286C31.5234 17.1051 31.5624 17.1816 31.6071 17.2717C32.288 16.72 32.9382 16.1573 33.622 15.6437C34.6741 14.8516 35.7457 14.0841 36.8229 13.3247C37.0992 13.1308 37.4173 12.986 37.7327 12.8576C38.3132 12.6227 38.6508 12.7484 38.9662 13.2728V13.7945L38.9718 13.7918ZM31.2806 23.6306C31.2471 23.6225 31.2164 23.6143 31.1829 23.6033C31.1299 23.658 31.0768 23.7126 31.0238 23.7672C29.9271 24.9145 28.8415 26.0726 27.7308 27.2062C27.3429 27.6022 27.061 28.012 26.8936 28.5501C26.4052 30.107 25.4508 31.3089 23.8461 31.8962C21.8647 32.62 19.9196 32.3032 18.0023 31.6148C17.7456 31.522 17.6367 31.298 17.6842 31.0275C17.7316 30.7571 17.9047 30.5932 18.1809 30.5714C18.8591 30.5195 19.2609 30.1562 19.4256 29.528C19.5484 29.0527 19.6628 28.5774 19.7689 28.0967C20.1484 26.3813 20.8489 24.8926 23.4721 24.4638C23.5977 24.4419 23.7373 24.3818 23.8293 24.2971C26.0536 22.2786 28.2722 20.2545 30.4964 18.2359C30.6415 18.1048 30.675 18.0065 30.6024 17.8235C29.9801 16.1928 29.0424 14.7642 27.8089 13.5132C24.7419 10.4075 19.7075 8.85323 15.2284 10.4348C13.646 10.992 12.1837 11.7295 11.0116 12.945C9.43204 14.5812 9.27297 17.1269 11.4972 18.6265C11.9102 18.9052 12.3037 19.2111 12.6832 19.5361C13.66 20.3747 14.0256 21.4318 13.7884 22.6801C13.6237 23.5542 13.0767 24.1851 12.3902 24.7205C11.9214 25.0865 11.4274 25.428 10.9781 25.8131C9.9567 26.6899 9.66367 27.8153 9.926 29.0855C10.1409 30.1207 10.7632 30.9374 11.5809 31.582C14.3325 33.7509 17.4805 34.6659 20.9605 34.0131C25.9475 33.0762 29.2517 30.1726 30.8508 25.4471C31.0489 24.8598 31.1382 24.237 31.2778 23.6306H31.2806ZM26.6396 26.7664C26.687 26.709 26.7289 26.6435 26.7819 26.5861C28.981 24.207 31.222 21.8661 33.3652 19.4405C34.7383 17.8836 35.9662 16.2037 37.2555 14.5757C37.3197 14.4938 37.3671 14.3982 37.4201 14.308C37.3978 14.2916 37.3727 14.2725 37.3504 14.2561C32.8238 17.4493 28.7661 21.1723 24.7419 24.9554C25.3894 25.5727 25.9949 26.1518 26.6396 26.7664ZM19.8637 31.0057C20.8656 31.2024 21.8228 31.2734 22.78 31.0631C24.541 30.6725 25.4815 29.4952 25.9224 27.8617C25.9419 27.788 25.8833 27.6651 25.8219 27.6022C25.3363 27.1106 24.8424 26.6271 24.3512 26.1409C23.6731 25.4717 23.5893 25.4526 22.6852 25.8186C22.5317 25.8814 22.381 25.9552 22.2386 26.0371C21.46 26.4933 21.1447 27.2362 20.941 28.0502C20.687 29.0609 20.62 30.1316 19.8637 31.0057Z" fill="white"/>
<path d="M18.8864 35.4443C16.1766 35.4443 13.5924 34.5839 11.1784 32.8767C10.0063 32.0463 9.21379 31.0384 8.82588 29.8747C8.14215 27.837 8.76727 25.854 10.4947 24.5702L10.7291 24.3981C11.1059 24.1195 11.4966 23.8299 11.8566 23.5213C12.3366 23.1088 12.6017 22.5707 12.6017 22.0053C12.6017 21.4426 12.3422 20.9045 11.865 20.4893C11.5022 20.1725 11.1031 19.8802 10.718 19.5961L10.531 19.4568C9.10774 18.4079 8.45192 17.0012 8.5775 15.2749C8.65843 14.1877 9.10216 13.2044 9.93658 12.262C10.9859 11.0793 12.3561 10.1861 14.2538 9.45952C16.2799 8.67831 18.3143 8.40242 20.3041 8.6346C23.7032 9.03067 26.6027 10.4565 28.9302 12.8739C30.0688 14.0566 30.9758 15.4388 31.6205 16.9766C31.6316 17.0039 31.6428 17.0285 31.6567 17.0558C31.8214 16.922 31.9832 16.7881 32.1451 16.6543C32.5972 16.2801 33.0633 15.8949 33.5405 15.5371C34.4586 14.8488 35.4772 14.1085 36.747 13.2153C37.054 12.9995 37.4112 12.8438 37.6875 12.7319C38.321 12.4751 38.7424 12.6171 39.094 13.2017L39.1135 13.2344L39.0996 13.849C38.2847 15.5617 37.0623 17.023 35.8819 18.4352C35.653 18.7084 35.4242 18.9815 35.1982 19.2574C34.7321 19.8256 34.2381 20.3855 33.7609 20.9291C33.4288 21.306 33.0995 21.6802 32.773 22.0627C32.6893 22.1637 32.6251 22.3167 32.6223 22.4396C32.533 25.2121 31.6456 27.7251 29.9935 29.9021C27.733 32.8794 24.7078 34.6877 21.0018 35.2777C20.2901 35.3896 19.5869 35.447 18.892 35.447L18.8864 35.4443ZM18.9339 8.82854C17.4185 8.82854 15.8836 9.12354 14.3515 9.71354C12.4985 10.4265 11.1617 11.2924 10.1431 12.4423C9.35053 13.3355 8.92913 14.2697 8.85378 15.294C8.73378 16.922 9.35332 18.2495 10.6957 19.241L10.8826 19.3803C11.2733 19.6671 11.6752 19.9649 12.0464 20.2872C12.585 20.7543 12.878 21.3661 12.878 22.008C12.878 22.6527 12.5766 23.2618 12.038 23.7261C11.6724 24.0403 11.2761 24.3325 10.8938 24.6139L10.6622 24.786C9.03239 25.996 8.44355 27.8644 9.0882 29.7873C9.45937 30.8936 10.2157 31.8578 11.3403 32.6527C14.3096 34.7532 17.5413 35.5453 20.9487 35.0018C24.5823 34.4227 27.546 32.65 29.7618 29.7327C31.3832 27.5994 32.2484 25.1411 32.3377 22.4232C32.3432 22.2402 32.427 22.0271 32.5526 21.8796C32.8791 21.4972 33.2112 21.1203 33.5433 20.7433C34.0205 20.2025 34.5116 19.6425 34.9749 19.0799C35.2009 18.804 35.4298 18.5308 35.6586 18.2577C36.8223 16.8673 38.0251 15.4278 38.8261 13.7589V13.3055C38.5498 12.8602 38.2847 12.7783 37.7851 12.9804C37.5228 13.0869 37.1851 13.2317 36.9033 13.4311C35.6363 14.3243 34.6205 15.0591 33.7051 15.7474C33.2335 16.0998 32.7898 16.4685 32.3209 16.8564C32.1144 17.0285 31.9051 17.2006 31.693 17.3727L31.5535 17.4847L31.4335 17.2361C31.4056 17.1787 31.3804 17.1268 31.3581 17.0722C30.7246 15.5644 29.84 14.2123 28.7237 13.0514C26.4465 10.6914 23.6027 9.29563 20.2706 8.90502C19.8269 8.85312 19.3832 8.82854 18.9339 8.82854ZM18.7748 34.3571C16.185 34.3571 13.7431 33.4639 11.4882 31.6885C10.5589 30.9564 9.98402 30.0905 9.78309 29.1127C9.49565 27.7251 9.86681 26.5806 10.8798 25.7119C11.1729 25.4606 11.4882 25.223 11.7952 24.9963C11.9626 24.8706 12.1329 24.745 12.2975 24.6139C13.0789 24.0048 13.5059 23.382 13.6454 22.6554C13.8743 21.4508 13.5171 20.4374 12.585 19.6371C12.1831 19.2929 11.798 18.9979 11.4129 18.7384C10.4082 18.061 9.81658 17.1432 9.70216 16.0779C9.57937 14.9471 10.0175 13.7726 10.905 12.852C11.9403 11.7786 13.2966 10.97 15.1748 10.3063C19.4585 8.79303 24.5739 10.0468 27.9004 13.4229C29.1562 14.6958 30.1051 16.1626 30.7246 17.7797C30.8139 18.0118 30.7721 18.1675 30.5823 18.3424C29.4186 19.3967 28.2576 20.4538 27.0967 21.5109C26.0362 22.4751 24.9758 23.4393 23.9153 24.4036C23.8064 24.5019 23.6446 24.5784 23.4855 24.603C21.0688 24.999 20.3013 26.2992 19.8966 28.1321C19.7739 28.6838 19.665 29.14 19.5534 29.5661C19.3692 30.2708 18.9087 30.656 18.1831 30.7106C17.9738 30.727 17.8483 30.8417 17.8148 31.052C17.7924 31.1777 17.7952 31.3989 18.0436 31.4891C20.318 32.3058 22.0902 32.3932 23.7897 31.7704C25.2409 31.2405 26.2372 30.1424 26.7507 28.5117C26.9153 27.99 27.1832 27.5584 27.6214 27.1132C28.4139 26.3047 29.2093 25.4716 29.9739 24.663C30.2865 24.3325 30.599 24.0048 30.9116 23.677L31.1293 23.453L31.4363 23.5349L31.4056 23.6633C31.3609 23.8545 31.3218 24.0457 31.2828 24.2397C31.1991 24.6549 31.1125 25.0837 30.973 25.4934C29.346 30.2981 25.9832 33.2099 20.9767 34.1523C20.2287 34.2916 19.492 34.3626 18.7664 34.3626L18.7748 34.3571ZM18.9534 9.94572C17.7004 9.94572 16.4529 10.1479 15.2724 10.563C13.4361 11.2104 12.1133 11.9971 11.1087 13.0378C10.277 13.9009 9.86681 14.999 9.97844 16.0479C10.0845 17.0285 10.6371 17.8807 11.5719 18.5117C11.9654 18.7767 12.3589 19.0771 12.7692 19.4295C13.7794 20.2954 14.1673 21.3962 13.9189 22.7018C13.7682 23.4967 13.3078 24.1714 12.4706 24.8242C12.3031 24.9553 12.1329 25.081 11.9626 25.2093C11.6612 25.4333 11.3515 25.6682 11.064 25.9141C10.1291 26.7144 9.79146 27.7715 10.0566 29.0553C10.2464 29.9676 10.785 30.7816 11.664 31.4727C14.4827 33.6934 17.5999 34.5019 20.932 33.8764C25.8325 32.9559 29.1228 30.1042 30.7163 25.4006C30.8502 25.0072 30.9339 24.5866 31.0177 24.1796C31.0372 24.0894 31.0539 23.9993 31.0735 23.9092C30.7777 24.2205 30.479 24.5319 30.1832 24.8433C29.4158 25.6518 28.6204 26.4877 27.8251 27.2962C27.4176 27.7114 27.1693 28.1075 27.0186 28.5855C26.48 30.3009 25.4251 31.4563 23.8874 32.019C22.1432 32.6554 20.2567 32.568 17.9459 31.7376C17.6362 31.6256 17.4799 31.3443 17.5385 31.0001C17.5943 30.6642 17.8231 30.4566 18.1608 30.432C18.7608 30.3855 19.1292 30.0769 19.2827 29.4923C19.3943 29.069 19.5032 28.6155 19.6232 28.0665C20.0529 26.1271 20.8678 24.7477 23.4381 24.3271C23.5441 24.3107 23.6557 24.2588 23.7227 24.196C24.7832 23.2345 25.8437 22.2675 26.9041 21.3033C28.0651 20.2462 29.226 19.1891 30.3897 18.1348C30.4986 18.0364 30.5097 17.9955 30.4595 17.8698C29.8539 16.2883 28.9246 14.8542 27.6967 13.6059C25.3637 11.2377 22.132 9.94026 18.9478 9.94026L18.9534 9.94572ZM21.5571 31.3306C21.0353 31.3306 20.4715 31.2678 19.8325 31.1422L19.6008 31.0957L19.7543 30.9182C20.3264 30.2572 20.4855 29.4896 20.6557 28.6756C20.7032 28.4544 20.7478 28.2358 20.8008 28.0173C20.9878 27.2662 21.2976 26.4276 22.1627 25.9195C22.3078 25.8349 22.4641 25.7556 22.6288 25.6901C23.5804 25.3049 23.7339 25.335 24.4483 26.0425L24.8167 26.4057C25.1878 26.769 25.5562 27.1351 25.9218 27.5038C25.9944 27.5776 26.0948 27.7496 26.0558 27.8944C25.5562 29.7436 24.493 30.8226 22.8074 31.1941C22.4055 31.2815 21.9981 31.3279 21.5571 31.3279V31.3306ZM20.1115 30.9154C21.1441 31.0985 21.9646 31.1039 22.746 30.9291C24.3199 30.5822 25.3134 29.5661 25.7851 27.8261C25.7851 27.8043 25.7572 27.736 25.7181 27.695C25.3553 27.3263 24.9869 26.963 24.6185 26.5997L24.2502 26.2364C23.6111 25.6054 23.5832 25.6 22.7376 25.9441C22.5869 26.0042 22.4446 26.0752 22.3106 26.1544C21.5348 26.6106 21.2501 27.3864 21.0771 28.0829C21.0241 28.2959 20.9794 28.5117 20.9348 28.7302C20.7785 29.4732 20.6194 30.2408 20.1171 30.9154H20.1115ZM26.6502 26.9712L24.5376 24.9553L24.6409 24.857C28.7097 21.0356 32.7367 17.3399 37.2661 14.1468L37.3498 14.0867L37.5982 14.2779L37.534 14.3817C37.5172 14.409 37.5005 14.4363 37.4865 14.4636C37.4475 14.5319 37.4084 14.6002 37.361 14.6603C36.9703 15.152 36.5851 15.6518 36.2 16.149C35.3293 17.2771 34.4251 18.4434 33.4651 19.5306C31.9665 21.2296 30.3953 22.9122 28.8744 24.5374C28.2074 25.2503 27.5432 25.9632 26.8818 26.6789C26.8483 26.7144 26.8204 26.7526 26.7897 26.7909L26.6502 26.9712ZM24.9367 24.9553L26.6195 26.5614C26.6362 26.5396 26.6558 26.5177 26.6753 26.4959C27.3367 25.7802 28.0037 25.0673 28.6707 24.3544C30.1888 22.7291 31.7628 21.0465 33.2558 19.353C34.2102 18.2713 35.1088 17.1077 35.9796 15.9851C36.3172 15.548 36.6549 15.111 36.9982 14.6767C32.6977 17.7605 28.8353 21.3006 24.9395 24.958L24.9367 24.9553Z" fill="white"/>
<path d="M18.4375 14.6359C18.4375 13.3193 19.5343 12.2376 20.8738 12.2376C22.2357 12.2376 23.3575 13.3166 23.3603 14.6277C23.3603 15.9361 22.2552 17.0232 20.9184 17.0259C19.5538 17.0314 18.4431 15.9579 18.4403 14.6359H18.4375ZM19.5761 14.6304C19.5761 15.3406 20.1538 15.906 20.8877 15.9169C21.6022 15.9279 22.2133 15.3433 22.2245 14.6468C22.2357 13.9393 21.6273 13.3466 20.8877 13.3466C20.1622 13.3466 19.5789 13.9175 19.5789 14.6304H19.5761Z" fill="white"/>
<path d="M20.9073 17.1625C20.2096 17.1625 19.551 16.8975 19.057 16.4168C18.5687 15.9388 18.298 15.3078 18.2952 14.6386C18.2952 13.9639 18.5631 13.3275 19.0542 12.8467C19.5426 12.3687 20.1873 12.1038 20.871 12.1038C22.3166 12.1038 23.4943 13.2373 23.4943 14.6304C23.4943 16.0235 22.3361 17.1625 20.9129 17.1652H20.9045L20.9073 17.1625ZM20.8738 12.3742C20.2654 12.3742 19.6905 12.6091 19.2552 13.0379C18.817 13.4668 18.577 14.0349 18.577 14.6386C18.577 15.2368 18.8198 15.7995 19.2552 16.2256C19.6961 16.6544 20.2822 16.8921 20.9073 16.8921H20.9156C22.1659 16.8893 23.2208 15.8514 23.2208 14.6304C23.2208 13.3876 22.1687 12.3769 20.8766 12.3769L20.8738 12.3742ZM20.9045 16.0535C20.9045 16.0535 20.8905 16.0535 20.8822 16.0535C20.0701 16.0426 19.4338 15.4171 19.4338 14.6304C19.4338 13.8465 20.084 13.21 20.8822 13.21C21.2812 13.21 21.658 13.363 21.9398 13.6443C22.2161 13.9175 22.364 14.2726 22.3584 14.6468C22.3529 15.021 22.1938 15.3761 21.9119 15.6438C21.6357 15.9087 21.2757 16.0535 20.9017 16.0535H20.9045ZM19.7156 14.6304C19.7156 15.2641 20.2291 15.7694 20.8905 15.7804C21.1947 15.7858 21.4933 15.6684 21.7222 15.4498C21.951 15.2313 22.0794 14.9445 22.085 14.6441C22.0905 14.3436 21.9705 14.0568 21.7473 13.8355C21.5184 13.6088 21.2143 13.4832 20.8877 13.4832C20.2431 13.4832 19.7184 13.9994 19.7184 14.6304H19.7156Z" fill="white"/>
<path d="M17.5307 28.2906C17.5279 29.6154 16.42 30.6861 15.0581 30.6779C13.7241 30.6725 12.6162 29.5826 12.6162 28.2769C12.6162 26.9658 13.7409 25.8841 15.0999 25.8896C16.4395 25.8951 17.5362 26.9767 17.5335 28.2906H17.5307ZM16.3976 28.2769C16.3948 27.5722 15.7948 26.9931 15.0776 26.9986C14.3492 27.0041 13.7492 27.5831 13.7465 28.2769C13.7465 28.9735 14.3437 29.5607 15.0637 29.5689C15.8004 29.5771 16.4004 28.9926 16.3976 28.2742V28.2769Z" fill="white"/>
<path d="M15.0691 30.8145H15.058C13.6598 30.8091 12.4766 29.6454 12.4766 28.277C12.4766 27.6105 12.7473 26.9822 13.2384 26.5042C13.7352 26.018 14.3938 25.7531 15.0887 25.7531H15.0998C16.5231 25.7585 17.6757 26.8976 17.6701 28.2906C17.6701 28.9653 17.3966 29.599 16.9082 30.0743C16.4171 30.5523 15.764 30.8145 15.0691 30.8145ZM15.0887 26.0262C14.4663 26.0262 13.8775 26.2638 13.4338 26.6982C12.9956 27.1243 12.7556 27.687 12.7556 28.277C12.7556 29.4979 13.8105 30.5359 15.058 30.5414C15.697 30.5414 16.2691 30.3092 16.7101 29.8803C17.1482 29.457 17.3882 28.8915 17.391 28.2879C17.3938 27.0451 16.3668 26.0289 15.097 26.0235H15.0887V26.0262ZM15.0803 29.7083C15.0803 29.7083 15.0691 29.7083 15.0636 29.7083C14.271 29.7001 13.6068 29.0445 13.6096 28.277C13.6096 27.5039 14.271 26.8675 15.0775 26.862H15.0915C15.471 26.862 15.831 27.0068 16.1073 27.2745C16.3864 27.5422 16.5398 27.9 16.5398 28.277C16.5398 28.6621 16.3891 29.0227 16.1101 29.2931C15.8338 29.5608 15.471 29.7083 15.0831 29.7083H15.0803ZM15.0887 27.1352H15.0775C14.4217 27.1407 13.8887 27.6542 13.8859 28.2797C13.8859 28.8997 14.4245 29.4297 15.0663 29.4351C15.3845 29.4297 15.6859 29.3204 15.9119 29.0991C16.138 28.8806 16.2608 28.5883 16.2608 28.277C16.2608 27.9738 16.1352 27.6842 15.9091 27.4684C15.6859 27.2526 15.3957 27.1352 15.0887 27.1352Z" fill="white"/>
<path d="M28.8749 18.4408C28.8693 19.7683 27.7558 20.8445 26.3996 20.8281C25.0628 20.8117 23.9549 19.7219 23.9605 18.4217C23.9661 17.0887 25.0768 16.0371 26.4721 16.0453C27.7949 16.0535 28.8777 17.1324 28.8721 18.4381L28.8749 18.4408ZM26.4191 19.7055C27.1586 19.7109 27.7391 19.1565 27.7447 18.4435C27.7475 17.7279 27.1475 17.1406 26.4135 17.1461C25.6991 17.1488 25.0907 17.7415 25.0935 18.4353C25.0935 19.1319 25.6907 19.7028 26.4219 19.7082L26.4191 19.7055Z" fill="white"/>
<path d="M26.4303 20.9675C26.4303 20.9675 26.4107 20.9675 26.3996 20.9675C24.9986 20.9511 23.8182 19.7875 23.8238 18.4244C23.8238 17.7552 24.0944 17.127 24.5772 16.6599C25.0768 16.1737 25.7605 15.9196 26.4777 15.9142C27.8842 15.9224 29.0229 17.056 29.0173 18.4436C29.0173 19.1237 28.741 19.7601 28.2442 20.2409C27.7559 20.7107 27.114 20.9702 26.4331 20.9702L26.4303 20.9675ZM26.461 16.1846C25.8163 16.1846 25.2163 16.4222 24.7726 16.8511C24.3428 17.269 24.1028 17.8262 24.1028 18.4244C24.1 19.64 25.1521 20.6779 26.4052 20.6943C27.0191 20.7052 27.6052 20.4703 28.0461 20.0442C28.4898 19.6181 28.7354 19.0472 28.7382 18.4408C28.7438 17.2035 27.728 16.1901 26.4777 16.1846H26.4638H26.461ZM26.4331 19.8421H26.4219C25.6154 19.8366 24.9568 19.2029 24.954 18.4326C24.954 17.6651 25.621 17.0122 26.4135 17.0068H26.4219C26.8126 17.0068 27.181 17.157 27.4573 17.4274C27.7363 17.7006 27.887 18.0584 27.887 18.4408C27.887 18.8178 27.7363 19.1701 27.4656 19.4324C27.1949 19.6946 26.8266 19.8394 26.4331 19.8394V19.8421ZM26.4219 17.2827H26.4163C25.7745 17.2854 25.2331 17.8126 25.2331 18.4326C25.2331 19.0554 25.7689 19.5635 26.4247 19.5689C26.7484 19.5771 27.0498 19.4542 27.2703 19.2412C27.488 19.0308 27.608 18.7495 27.608 18.4436C27.608 18.1349 27.4852 17.8426 27.2619 17.6241C27.0359 17.4029 26.74 17.2827 26.4219 17.2827Z" fill="white"/>
<path d="M14.3995 14.0704C15.7613 14.0868 16.8525 15.1494 16.8469 16.455C16.8413 17.7798 15.7195 18.856 14.366 18.8369C13.0041 18.8178 11.9101 17.7498 11.9185 16.4523C11.9269 15.1248 13.0404 14.0568 14.3995 14.0732V14.0704ZM13.0655 16.4305C13.0571 17.1488 13.6236 17.7197 14.3548 17.7279C15.1139 17.7361 15.6943 17.1871 15.6999 16.455C15.7027 15.7503 15.1418 15.1849 14.4246 15.174C13.6627 15.1603 13.0739 15.7039 13.0655 16.4305Z" fill="white"/>
<path d="M14.4051 18.9735C14.4051 18.9735 14.38 18.9735 14.366 18.9735C12.9316 18.9516 11.7707 17.8208 11.7818 16.4496C11.7874 15.7722 12.0609 15.1357 12.5548 14.6604C13.0516 14.1824 13.699 13.9202 14.4023 13.9339C15.8339 13.9502 16.9949 15.0811 16.9865 16.455C16.9837 17.1324 16.7074 17.7689 16.2079 18.2469C15.7195 18.714 15.0804 18.9707 14.4051 18.9707V18.9735ZM14.3716 14.207C13.7604 14.207 13.1855 14.4365 12.7502 14.8571C12.3093 15.2805 12.0637 15.8486 12.0609 16.4523C12.0525 17.6733 13.0879 18.6812 14.3716 18.7003C14.9828 18.7085 15.5716 18.4791 16.0153 18.053C16.4591 17.6268 16.7074 17.0587 16.7102 16.455C16.7158 15.2313 15.6804 14.2234 14.3995 14.2097C14.3911 14.2097 14.38 14.2097 14.3716 14.2097V14.207ZM14.3772 17.8645C14.3772 17.8645 14.3632 17.8645 14.3576 17.8645C13.9669 17.859 13.6042 17.7088 13.3362 17.4411C13.0683 17.1734 12.9232 16.8129 12.9288 16.4304C12.9344 16.048 13.0851 15.6957 13.3558 15.4389C13.6349 15.174 14.0256 15.0347 14.4302 15.0401C15.2256 15.0538 15.8479 15.6766 15.8423 16.4578C15.8423 16.8429 15.6888 17.2007 15.4181 17.4602C15.1446 17.7224 14.7763 17.8645 14.3772 17.8645ZM14.3995 15.3105C14.0702 15.3105 13.7716 15.4253 13.5511 15.6329C13.3335 15.8377 13.2135 16.1218 13.2079 16.4332C13.2051 16.7446 13.3195 17.0341 13.5344 17.2499C13.7493 17.4657 14.0423 17.5886 14.3604 17.5913C14.7037 17.5913 14.9995 17.4793 15.2228 17.2636C15.4404 17.0532 15.5604 16.7664 15.5632 16.455C15.566 15.8241 15.0665 15.3215 14.4246 15.3105C14.4163 15.3105 14.4079 15.3105 14.3995 15.3105Z" fill="white"/>
</g>
<defs>
<clipPath id="clip0_604_1882">
<rect width="30.5556" height="26.8889" fill="white" transform="translate(8.55566 8.55554)"/>
</clipPath>
</defs>
</svg>
