<?xml version="1.0" encoding="UTF-8"?>
<svg id="Calque_1" data-name="Calque 1" xmlns="http://www.w3.org/2000/svg" viewBox="0 0 408.12 280.67">
  <defs>
    <style>
      .cls-1 {
        stroke-width: 0px;
      }

      .cls-1, .cls-2 {
        fill: #56939e;
      }

      .cls-2 {
        stroke: #56939e;
        stroke-miterlimit: 10;
        stroke-width: .25px;
      }
    </style>
  </defs>
  <path class="cls-2" d="M204.25,192.73c-50.77.9-88.8-37.65-93.62-81.25-3.07-27.81,4.9-52.3,23.65-72.97,16-17.64,36.2-27.72,59.94-29.69,53.93-4.46,98.51,37.1,100,89.2,1.46,51.03-38.54,93.29-89.97,94.7ZM114.6,90.56c.21.09.42.19.63.28.2-.36.44-.71.61-1.08,4.99-11.3,12.2-20.94,21.89-28.59,14.39-11.35,30.45-17.74,49.16-16.17,6.32.53,12.25,2.16,17.78,5.15,11.69,6.32,18.29,16.45,21.51,29.08.32,1.25.36,2.46-.84,2.88-.78.27-2.16-.07-2.79-.66-4.35-4.04-9.49-6.26-15.32-6.8-6.98-.64-13.25,1.03-17.78,6.76-4.29,5.42-4.72,11.51-1.93,17.67,3.12,6.9,8.85,10.22,16.27,10.75,5.38.39,10.51-.93,15.04-3.64,7.16-4.29,14.11-8.93,21.03-13.6,6.95-4.68,13.78-9.55,21.68-12.56,8.52-3.24,16.95-3.52,25.19.96.25.13.56.15,1.32.34-6.19-24.91-19.69-44.29-41.78-56.6-31.46-17.52-63.13-16.54-93.32,3.16-22.48,14.67-34.79,36.21-38.36,62.68ZM212.79,71.26c.07-.18.15-.36.22-.55-2.08-1.08-4.09-2.33-6.26-3.22-15.1-6.2-34.21-1.87-45.78,10.29-10.24,10.76-12.71,27.07-6.12,40.24.63,1.26,1.27,2.19,2.93,2.41,4.44.59,8.65,2.13,12.33,4.66,5.04,3.45,9.94,7.13,14.74,10.91,1.65,1.3,3.36,1.64,5.19,1.44,8.54-.92,16.49-3.71,23.94-7.95,9.9-5.63,18.79-12.67,27.7-19.69,5.87-4.62,11.49-9.64,18.59-12.45,9.86-3.91,19.46-4.03,28.7,1.82.27.17.63.23,1.37.49-.38-4.03-.69-7.74-1.13-11.44-.07-.56-.65-1.17-1.15-1.54-8.05-5.87-16.68-6.01-25.65-2.51-7.35,2.87-13.71,7.42-20.19,11.79-6.93,4.68-13.81,9.49-21.05,13.66-7.48,4.31-15.58,5.95-24.16,3.11-13.46-4.45-19.49-20.57-11.9-32.24,4.81-7.4,12.02-10.18,20.57-9.91,2.38.07,4.74.44,7.11.67ZM217.35,68.7c.01-.26.08-.46.02-.61-.14-.34-.33-.67-.53-.99-7.09-11.26-17.54-17-30.57-18.13-13.13-1.14-25.3,2.25-36.59,8.83-16.19,9.44-27.16,23.18-32.85,41.02-1.25,3.92-2.6,7.89-2.1,12.23,1.2,10.42,4.25,20.24,8.94,29.59.38.75.88,1.44,1.63,2.67,1.37-6.76,4.21-12.16,8.89-16.43,4.7-4.28,10.39-6.49,16.84-7.08-.19-.64-.28-1.05-.44-1.43-2.99-6.96-4.1-14.19-3.02-21.71,1.42-9.86,5.95-18.06,13.49-24.53,8.17-7.01,17.7-10.71,28.46-11.38,7.19-.45,14.04.7,20.53,3.77,2.5,1.18,4.82,2.74,7.3,4.18ZM134.48,156.54c.6-.89,1.07-1.63,1.58-2.33,4.84-6.66,11.37-10.11,19.62-10.19,6.66-.06,12.58,2.27,18.06,5.84,7.17,4.67,14.22,9.52,21.46,14.07,8.86,5.57,18.13,10.37,28.39,12.86,11.49,2.78,22.37,2.11,31.77-6.1.45-.39.89-.78,1.37-1.2-.26-.19-.36-.33-.44-.32-1.61.23-3.2.53-4.81.71-10.11,1.12-19.62-1.25-28.84-5.11-13.44-5.63-25.16-14.05-36.66-22.81-5.57-4.24-11-8.68-16.75-12.64-5.99-4.12-12.8-6.15-20.09-5.09-10.2,1.48-17.33,8.79-19.67,18.85-1.33,5.71.85,9.73,5.01,13.46ZM286.56,125.61c1.82-6.36,2.9-12.42,3.38-18.6.11-1.45-.43-2.33-1.5-3.14-6.24-4.7-13.19-5.99-20.76-4.46-7.27,1.48-13.13,5.56-18.87,9.98-8.42,6.47-16.81,13-25.5,19.1-9.07,6.37-18.94,11.15-30.14,12.6-.2.03-.37.26-.69.49.34.32.57.59.85.79,3.99,2.8,8.01,5.54,11.96,8.39,1.06.77,1.97.83,3.09.26,6.46-3.27,13.14-6.14,19.34-9.85,8.51-5.09,16.61-10.85,24.96-16.2,4.78-3.07,10.07-4.99,15.77-5.34,5.89-.36,11.34,1.17,16.19,4.63.54.39,1.1.76,1.93,1.33ZM233,182.87c-.05-.16-.11-.32-.16-.48-8.63-.54-16.7-3.12-24.51-6.68-9.91-4.52-18.99-10.44-28.01-16.47-5.22-3.49-10.14-7.49-16.16-9.66-10.18-3.68-20.65-.51-25.81,8.64-.82,1.44-.81,2.44.47,3.55,2.87,2.51,5.67,5.1,8.47,7.68.89.82,1.7.84,2.86.39,2.02-.77,4.12-1.52,6.25-1.76,6.01-.67,11.62.87,16.88,3.74,9.5,5.18,18.87,10.63,29.02,14.48,2.24.85,4.64,1.96,6.94,1.89,7.12-.24,14.02-1.95,20.8-4.1,1.01-.32,1.97-.81,2.96-1.22ZM211.5,154.43c.71.46,1.18.85,1.72,1.11,3.78,1.89,7.59,3.74,11.36,5.65,1.22.62,2.31.59,3.53-.06,7.76-4.11,15.55-8.15,23.32-12.24,5.21-2.74,10.64-4.71,16.62-4.12,2.98.29,5.9,1.15,9.07,1.8,3.07-4.78,5.61-10.16,7.65-15.79.14-.38-.14-1.11-.47-1.42-4.5-4.17-9.89-6.02-15.95-5.54-6.59.52-12.18,3.59-17.61,7.19-8.72,5.78-17.54,11.42-26.47,16.88-3.96,2.42-8.29,4.25-12.79,6.53ZM232.84,163.69c.47.25.76.49,1.09.57,5.34,1.37,10.71,2.14,16.26,1.57,9.14-.95,17.06-3.96,22.15-12.21.63-1.03,1.43-1.95,2.3-3.11-.96-.4-1.56-.7-2.2-.9-6.22-1.9-12.08-.69-17.67,2.23-7,3.66-13.95,7.41-20.92,11.13-.3.16-.57.4-1,.72ZM194.34,188.22c.07-.15.14-.3.21-.45-.44-.26-.87-.54-1.32-.77-5.41-2.82-10.82-5.63-16.23-8.45-4.56-2.38-8.88-5.27-14.09-6.18-3.34-.59-6.61-.66-10.27.96,12.9,8.69,26.68,13.51,41.69,14.89Z"/>
  <g>
    <path class="cls-1" d="M31.53,270.18c-6.2,0-11.34-2.04-15.45-6.15s-6.17-9.22-6.17-15.34,2.07-11.14,6.17-15.22,9.28-6.12,15.48-6.12,11.34,2.04,15.45,6.12,6.15,9.16,6.15,15.22-2.04,11.23-6.15,15.34-9.25,6.15-15.45,6.15h-.03ZM31.5,262.74c3.99,0,7.24-1.35,9.74-4.02s3.73-6,3.73-9.99-1.23-7.24-3.73-9.91-5.74-3.99-9.74-3.99-7.24,1.32-9.74,3.99-3.73,5.97-3.73,9.91,1.23,7.32,3.73,9.99,5.74,3.99,9.74,3.99v.03Z"/>
    <path class="cls-1" d="M81.85,270.21c-6.2,0-11.34-2.04-15.45-6.15s-6.15-9.22-6.15-15.34,2.04-11.14,6.15-15.22,9.22-6.12,15.34-6.12c5.2,0,9.56,1.32,13.07,3.96s5.8,5.77,6.86,9.39l-7.9,1.92c-.72-2.15-2.15-3.99-4.31-5.49s-4.71-2.24-7.7-2.24c-3.96,0-7.18,1.32-9.62,3.99s-3.68,5.92-3.68,9.74,1.23,7.12,3.7,9.85,5.66,4.08,9.59,4.08c2.99,0,5.57-.75,7.73-2.21s3.59-3.27,4.31-5.43l7.81,2.01c-1.01,3.59-3.27,6.69-6.78,9.3s-7.81,3.91-12.89,3.91l-.09.03Z"/>
    <path class="cls-1" d="M118.14,235.46v9.42h19.44v7.06h-19.44v10.11h22.4v7.29h-30.3v-41.18h30.35v7.29h-22.46Z"/>
    <path class="cls-1" d="M176.7,260.41h-18.52l-3.42,8.93h-8.36l15.77-41.18h10.48l15.82,41.18h-8.41l-3.36-8.93ZM174,253.29l-6.61-17.4-6.58,17.4h13.18Z"/>
    <path class="cls-1" d="M230.79,228.16v41.18h-6.63l-20.71-26.77v26.77h-8.07v-41.18h6.66l20.68,26.71v-26.71h8.07Z"/>
    <path class="cls-1" d="M291.52,235.46h-13.81v33.89h-8.07v-33.89h-13.81v-7.29h35.7v7.29Z"/>
    <path class="cls-1" d="M315.95,254.96h-8.76v14.42h-8.01v-41.18h20.05c4.22,0,7.64,1.35,10.22,4.08s3.88,5.83,3.88,9.3c0,2.79-.8,5.31-2.38,7.61s-3.79,3.93-6.61,4.94l10.22,15.22h-9.3l-9.3-14.39ZM307.16,247.89h11.52c2.04,0,3.68-.6,4.94-1.81s1.9-2.7,1.9-4.48-.6-3.16-1.84-4.37-2.79-1.81-4.68-1.81h-11.8l-.03,12.46Z"/>
    <path class="cls-1" d="M342.95,228.16h8.18v41.18h-8.18v-41.18Z"/>
    <path class="cls-1" d="M380.93,228.19c4.28,0,7.73,1.46,10.37,4.39s3.96,6.23,3.96,9.91-1.32,7.09-3.96,9.97c-2.64,2.87-6.2,4.31-10.65,4.31h-10.94v12.58h-8.01v-41.18h19.3l-.06.03ZM380.27,249.56c2.1,0,3.79-.72,5.11-2.13s1.98-3.04,1.98-4.91-.63-3.5-1.9-4.91-2.84-2.13-4.77-2.13h-11.06v14.13h10.68l-.06-.06Z"/>
  </g>
</svg>