<svg width="58" height="46" viewBox="0 0 58 46" fill="none" xmlns="http://www.w3.org/2000/svg">
<g filter="url(#filter0_b_414_1777)">
<path fill-rule="evenodd" clip-rule="evenodd" d="M3.97775 43.6682C1.44967 39.3649 0 34.3517 0 29C0 12.9837 12.9837 0 29 0C32.8031 0 36.4352 0.732075 39.7631 2.06299C39.0004 2.47655 38.3387 3.09931 37.873 3.90582C37.2775 4.93734 37.1026 6.09629 37.2952 7.18403C34.7181 6.20376 31.9224 5.66699 29.0013 5.66699C16.1147 5.66699 5.66797 16.1137 5.66797 29.0003C5.66797 33.1876 6.77095 37.1173 8.70224 40.5147C8.73505 40.5642 8.76653 40.615 8.79661 40.6671C9.57948 42.023 9.11489 43.7569 7.75893 44.5397C6.45814 45.2907 4.80958 44.8938 3.98644 43.6631L3.97775 43.6682ZM43.7432 10.9129C48.9866 15.1916 52.3346 21.705 52.3346 29.0003C52.3346 33.1936 51.2285 37.1285 49.2921 40.5293C49.2627 40.5741 49.2344 40.62 49.2073 40.6671C48.4244 42.023 48.889 43.7569 50.245 44.5397C51.5452 45.2904 53.1929 44.8941 54.0164 43.6648L54.0223 43.6682C56.5503 39.3649 58 34.3517 58 29C58 19.7619 53.6804 11.5328 46.9509 6.22205C46.9724 7.08643 46.7637 7.96739 46.2998 8.771C45.703 9.80467 44.7842 10.5365 43.7432 10.9129Z" fill="#E8AD3A"/>
</g>
<circle cx="2.835" cy="2.835" r="2.835" transform="matrix(0.5 -0.866025 -0.866025 -0.5 43.125 10.2109)" fill="#E8AD3A"/>
<path d="M18.0403 37.6934L24.6403 22.9184H16.0153V20.1934H27.9403V22.4684L21.3653 37.6934H18.0403ZM29.6524 37.6934V35.3684C30.7191 34.485 31.7524 33.61 32.7524 32.7434C33.7691 31.8767 34.6691 31.0184 35.4524 30.1684C36.2524 29.3184 36.8858 28.4934 37.3524 27.6934C37.8358 26.8767 38.0774 26.085 38.0774 25.3184C38.0774 24.6017 37.8774 23.9684 37.4774 23.4184C37.0941 22.8684 36.4524 22.5934 35.5524 22.5934C34.6358 22.5934 33.9441 22.8934 33.4774 23.4934C33.0108 24.0934 32.7774 24.8184 32.7774 25.6684H29.6774C29.7108 24.385 29.9941 23.3184 30.5274 22.4684C31.0608 21.6017 31.7691 20.96 32.6524 20.5434C33.5358 20.11 34.5274 19.8934 35.6274 19.8934C37.4108 19.8934 38.7941 20.385 39.7774 21.3684C40.7774 22.335 41.2774 23.5934 41.2774 25.1434C41.2774 26.11 41.0524 27.0517 40.6024 27.9684C40.1691 28.885 39.5941 29.7684 38.8774 30.6184C38.1608 31.4684 37.3858 32.2684 36.5524 33.0184C35.7191 33.7517 34.9108 34.435 34.1274 35.0684H41.7024V37.6934H29.6524Z" fill="#E8AD3A"/>
<defs>
<filter id="filter0_b_414_1777" x="-40" y="-40" width="138" height="124.92" filterUnits="userSpaceOnUse" color-interpolation-filters="sRGB">
<feFlood flood-opacity="0" result="BackgroundImageFix"/>
<feGaussianBlur in="BackgroundImageFix" stdDeviation="20"/>
<feComposite in2="SourceAlpha" operator="in" result="effect1_backgroundBlur_414_1777"/>
<feBlend mode="normal" in="SourceGraphic" in2="effect1_backgroundBlur_414_1777" result="shape"/>
</filter>
</defs>
</svg>
