<svg width="28" height="28" viewBox="0 0 28 28" fill="none" xmlns="http://www.w3.org/2000/svg">
<path d="M14 0C10.5508 0 7.3926 1.24797 4.95249 3.31627C3.49517 1.97823 1.24249 1.24249 1.24249 1.24249C1.24249 1.24249 1.97823 3.49517 3.31627 4.95249C1.24797 7.3926 0 10.5507 0 14.0001C0 17.4494 1.24797 20.6075 3.31627 23.0475C1.97823 24.5048 1.24249 26.7575 1.24249 26.7575C1.24249 26.7575 3.49517 26.0218 4.95249 24.6837C7.3926 26.7521 10.5507 28 14 28C17.4493 28 20.6074 26.752 23.0475 24.6838C24.5048 26.0218 26.7575 26.7575 26.7575 26.7575C26.7575 26.7575 26.0218 24.5048 24.6837 23.0475C26.752 20.6075 28 17.4493 28 14C28 10.5507 26.752 7.3926 24.6837 4.95249C26.0218 3.49517 26.7575 1.24249 26.7575 1.24249C26.7575 1.24249 24.5048 1.97823 23.0475 3.31627C20.6074 1.24797 17.4493 0 14 0ZM14 2.31876C15.5459 2.34283 17.2089 3.63208 16.765 5.09255L15.6012 8.85503C15.403 8.79381 15.2015 8.74414 14.9975 8.70627L15.6537 6.20373C15.9193 5.17452 14.916 4.26071 13.9912 4.24373C13.0663 4.26071 12.0806 5.17452 12.3463 6.20373L13.0025 8.70627C12.7985 8.74412 12.597 8.79377 12.3988 8.85497L11.2263 5.09249C10.7823 3.63208 12.4541 2.34289 14 2.31876ZM7.83124 4.8387C8.5848 4.80712 9.29177 5.07545 9.65124 5.7487L11.48 9.23118C11.2962 9.32841 11.1254 9.43785 10.955 9.55497L9.65124 7.31497C9.34741 6.79995 8.79289 6.59293 8.24249 6.62367C7.81444 6.64762 7.38747 6.81532 7.09627 7.09621C6.45424 7.7622 6.39943 9.11996 7.31503 9.65994L9.54627 10.9637C9.42665 11.1386 9.3212 11.3172 9.22249 11.5062L5.73124 9.6687C4.3848 8.94993 4.64615 6.85011 5.7226 5.73994C6.27766 5.20186 7.07774 4.87027 7.83136 4.8387H7.83124ZM19.8712 4.8387C20.7 4.78734 21.6355 5.1346 22.26 5.73994C23.3362 6.85011 23.5974 8.94987 22.2513 9.6687L18.7775 11.4975C18.679 11.3095 18.5643 11.1377 18.4451 10.9637L20.6851 9.65124C21.6007 9.1112 21.537 7.76214 20.8951 7.09621C20.5621 6.77523 20.0533 6.60312 19.5651 6.62367C19.0769 6.64422 18.6189 6.8572 18.3488 7.31497L17.0451 9.55497C16.8693 9.43415 16.6926 9.32203 16.5025 9.22243L18.3313 5.74864C18.6457 5.15963 19.2265 4.87861 19.8712 4.8387ZM14 10.0275C16.1944 10.0275 17.9725 11.8056 17.9725 14C17.9725 16.1944 16.1944 17.9725 14 17.9725C11.8056 17.9725 10.0275 16.1944 10.0275 14.0001C10.0275 11.8058 11.8056 10.0275 14 10.0275ZM4.55 11.165C4.73059 11.1583 4.91103 11.182 5.08379 11.235L8.85503 12.4075C8.79381 12.6057 8.74414 12.8073 8.70627 13.0112L6.19503 12.355C6.06635 12.3218 5.93368 12.299 5.81 12.3025C4.94498 12.3273 4.24986 13.1907 4.23503 14C4.25207 14.9248 5.16582 15.9193 6.19503 15.6538L8.70627 14.9975C8.74414 15.2015 8.79381 15.403 8.85503 15.6012L5.08373 16.7738C3.62344 17.2176 2.33407 15.5547 2.31 14.0088C2.33097 12.6561 3.32455 11.2088 4.55 11.165ZM23.4412 11.165C24.6667 11.2088 25.6602 12.6561 25.6812 14.0088C25.6575 15.5547 24.3679 17.2176 22.9075 16.7738L19.145 15.6012C19.2062 15.403 19.2559 15.2015 19.2937 14.9975L21.7963 15.6537C22.8255 15.9193 23.7393 14.9248 23.7563 14C23.7414 13.1907 23.0376 12.3273 22.1725 12.3025C22.0489 12.299 21.9248 12.3218 21.7963 12.355L19.2937 13.0112C19.2559 12.8073 19.2062 12.6057 19.145 12.4075L22.9075 11.235C23.0803 11.1819 23.2607 11.1583 23.4413 11.165L23.4412 11.165ZM9.23124 16.5025C9.33145 16.6934 9.43338 16.8772 9.55503 17.0537L7.31503 18.3575C6.39937 18.8975 6.4456 20.2378 7.08746 20.9037C7.7535 21.5457 9.1112 21.6093 9.65124 20.6938L10.9637 18.445C11.1368 18.5636 11.3107 18.6707 11.4975 18.7688L9.6513 22.2688C8.93242 23.6153 6.83272 23.3536 5.72249 22.2775C4.64639 21.1673 4.38504 19.0676 5.73118 18.3488L9.23124 16.5025ZM18.7688 16.52L22.2512 18.3488C23.5976 19.0676 23.3363 21.1673 22.2599 22.2775C21.1498 23.3537 19.0499 23.6153 18.3312 22.2688L16.4937 18.7776C16.6826 18.6789 16.8612 18.5734 17.0362 18.4538L18.3399 20.6938C18.8799 21.6094 20.2377 21.5458 20.9037 20.9038C21.5456 20.2378 21.6006 18.8976 20.6849 18.3576L18.4449 17.0538C18.5632 16.8824 18.6713 16.7042 18.7687 16.5201L18.7688 16.52ZM12.3988 19.145C12.597 19.2063 12.7985 19.2559 13.0025 19.2938L12.3463 21.805C12.0806 22.8342 13.0663 23.7481 13.9912 23.765C14.916 23.7481 15.9194 22.8342 15.6537 21.805L14.9975 19.2938C15.2015 19.2559 15.4031 19.2063 15.6013 19.145L16.765 22.9163C17.2089 24.3767 15.546 25.6659 14 25.6901C12.454 25.6659 10.7823 24.3767 11.2262 22.9163L12.3988 19.145Z" fill="white"/>
</svg>
