<svg width="35" height="34" viewBox="0 0 35 34" fill="none" xmlns="http://www.w3.org/2000/svg">
<path d="M2.41382 14.4126C2.42043 12.8151 2.75736 11.2348 3.40495 9.76402C4.05255 8.2932 4.99784 6.96129 6.18568 5.846C7.37352 4.7307 8.78012 3.85435 10.3234 3.26808C11.8667 2.68181 13.5158 2.39735 15.1745 2.43131C16.8332 2.46526 18.4682 2.81694 19.9843 3.46584C21.5003 4.11473 22.867 5.04785 24.0045 6.21074C25.1421 7.37364 26.0277 8.74303 26.6098 10.239C27.1919 11.735 27.4588 13.3276 27.3949 14.924C26.882 14.7891 26.3641 14.6722 25.8424 14.5736V14.4142C25.8446 12.9226 25.5167 11.4477 24.8806 10.0878C24.2444 8.72782 23.3146 7.514 22.1531 6.52719L22.0454 6.63849C21.7314 6.96636 21.2957 7.41455 20.8146 7.89583C19.8743 8.83733 18.7045 9.96082 17.9173 10.5323C17.9641 10.6316 18.0735 10.797 18.2952 11.0723L18.4905 11.3099C18.984 11.907 19.6978 12.7718 19.9868 13.8411C20.0618 14.1189 20.119 14.3745 20.1586 14.6082C19.6275 14.7205 19.1241 14.8638 18.6482 15.0383C18.6067 14.7627 18.5494 14.4896 18.4764 14.2201C18.2765 13.4817 17.7892 12.8846 17.2831 12.2649L17.0598 11.9927C16.8099 11.6829 16.4944 11.2738 16.3788 10.8346C16.3028 10.5632 16.3164 10.2756 16.4178 10.012C16.5303 9.72619 16.7349 9.50661 16.9676 9.33816C17.6361 8.85688 18.7279 7.81461 19.69 6.85356C20.1617 6.3813 20.5897 5.94063 20.8989 5.61727L20.9083 5.60825C19.0139 4.40886 16.7779 3.80893 14.5123 3.89219C14.6951 4.22607 14.9059 4.6502 15.0933 5.12998C15.5322 6.25196 15.9165 7.86274 15.2261 9.278C14.5951 10.5714 13.5127 10.9083 12.6771 11.1159L12.5256 11.1535C11.7353 11.349 11.3463 11.4453 11.073 11.8453C10.8075 12.2319 10.8731 12.7086 11.1308 13.5193L11.1917 13.7058C11.2948 14.0231 11.4151 14.3931 11.4775 14.7405C11.5556 15.1707 11.5728 15.6971 11.301 16.1994C11.0658 16.6599 10.6897 17.0399 10.2233 17.2883C9.85762 17.4667 9.464 17.5861 9.05815 17.6417L8.9207 17.6643C8.28345 17.7726 7.91328 17.8342 7.56653 18.1922C7.28852 18.478 7.1292 18.9562 7.04017 19.6075C7.00565 19.8744 6.97856 20.1422 6.95896 20.4106L6.94646 20.5535C6.9246 20.8589 6.8834 21.1628 6.82307 21.4634L6.81682 21.4935C8.41167 23.1843 10.5343 24.3298 12.8645 24.7571C12.575 25.2023 12.3074 25.6605 12.0617 26.1318C9.31629 25.5131 6.86889 24.0185 5.11731 21.8909C3.36573 19.7632 2.41295 17.1277 2.41382 14.4126ZM13.0316 4.41708C12.9655 4.30185 12.8968 4.18802 12.8255 4.07568C11.1127 4.39639 9.50451 5.107 8.1351 6.14818C6.76569 7.18937 5.67482 8.5309 4.95358 10.0608C4.23234 11.5907 3.90165 13.2645 3.98912 14.9425C4.07659 16.6205 4.57969 18.2541 5.4564 19.7067C5.46682 19.6085 5.47879 19.5092 5.49233 19.4089C5.58917 18.7066 5.79378 17.8162 6.42478 17.1665C7.14638 16.422 8.02574 16.2821 8.61613 16.1889L8.78482 16.1603C9.10189 16.1061 9.30962 16.055 9.47674 15.9678C9.66874 15.8595 9.82186 15.6974 9.91564 15.503C9.96093 15.4218 9.99061 15.282 9.93906 14.9977C9.88306 14.7243 9.80738 14.4549 9.71259 14.1916L9.63762 13.9614C9.40021 13.214 9.05347 12.0634 9.77038 11.0166C10.3951 10.1037 11.3932 9.87058 12.0773 9.70965L12.2866 9.66002C13.016 9.47954 13.4924 9.29605 13.8126 8.6373C14.2202 7.80108 14.0359 6.69413 13.6314 5.65938C13.4645 5.23125 13.264 4.81595 13.0316 4.41708ZM28.849 17.0251C28.7791 16.9162 28.6814 16.8262 28.5652 16.7639C28.449 16.7015 28.3182 16.6687 28.1852 16.6686H28.1727L28.1321 16.6626L27.99 16.6371C27.8333 16.6018 27.6776 16.5627 27.523 16.5197L27.3746 16.4791C26.9399 16.3584 26.5019 16.2491 26.061 16.1513C24.5498 15.8163 22.9893 15.739 21.4503 15.9227C19.5729 16.1483 18.1375 16.7604 17.1582 17.6402C16.1742 18.5246 15.69 19.6496 15.69 20.7986C15.691 21.0733 15.7108 21.334 15.7493 21.5807C17.3893 20.2015 19.412 19.0871 21.6471 18.2268C21.7427 18.1876 21.8455 18.1672 21.9494 18.1668C22.0534 18.1664 22.1563 18.186 22.2523 18.2244C22.3483 18.2628 22.4353 18.3192 22.5083 18.3904C22.5813 18.4616 22.6389 18.5461 22.6775 18.639C22.7162 18.7319 22.7352 18.8313 22.7335 18.9313C22.7318 19.0314 22.7093 19.1301 22.6675 19.2217C22.6256 19.3133 22.5652 19.3959 22.4898 19.4647C22.4143 19.5336 22.3254 19.5872 22.2281 19.6225C21.0354 20.0774 19.8867 20.6325 18.7951 21.2814C16.2148 22.7313 14.6076 24.5932 13.4299 26.8612C13.3448 27.0386 13.3348 27.241 13.4019 27.4254C13.4691 27.6098 13.6081 27.7618 13.7896 27.8492C13.9711 27.9366 14.1809 27.9525 14.3744 27.8936C14.5679 27.8347 14.7299 27.7055 14.8263 27.5335C15.426 26.38 16.1429 25.3437 17.0879 24.4233C17.1191 24.4794 17.1556 24.5411 17.1972 24.6082C17.4247 24.9787 17.6928 25.3246 17.9969 25.64C18.7232 26.3935 19.8931 27.1966 21.5471 27.1966C22.5655 27.1966 23.412 26.9455 24.1055 26.5108C24.7928 26.0807 25.2894 25.4956 25.6612 24.8805C26.2375 23.9329 26.5655 22.805 26.8092 21.9687C26.8706 21.7572 26.9274 21.5682 26.9794 21.4017C27.2382 20.6245 27.5839 19.8767 28.0103 19.1713C28.1946 18.86 28.368 18.5892 28.5163 18.3561L28.5429 18.317C28.6725 18.114 28.8037 17.9109 28.8834 17.756C28.9428 17.6415 28.9708 17.5142 28.9647 17.3863C28.9587 17.2584 28.9189 17.134 28.849 17.0251Z" fill="white"/>
</svg>
