<svg width="58" height="46" viewBox="0 0 58 46" fill="none" xmlns="http://www.w3.org/2000/svg">
<g filter="url(#filter0_b_651_1876)">
<path fill-rule="evenodd" clip-rule="evenodd" d="M3.97775 43.6682C1.44967 39.3649 0 34.3517 0 29C0 12.9837 12.9837 0 29 0C32.8031 0 36.4352 0.732075 39.7631 2.06299C39.0004 2.47655 38.3387 3.09931 37.873 3.90582C37.2775 4.93734 37.1026 6.09629 37.2952 7.18403C34.7181 6.20376 31.9224 5.66699 29.0013 5.66699C16.1147 5.66699 5.66797 16.1137 5.66797 29.0003C5.66797 33.1876 6.77095 37.1173 8.70224 40.5147C8.73505 40.5642 8.76653 40.615 8.79661 40.6671C9.57948 42.023 9.11489 43.7569 7.75893 44.5397C6.45814 45.2907 4.80958 44.8938 3.98644 43.6631L3.97775 43.6682ZM43.7432 10.9129C48.9866 15.1916 52.3346 21.705 52.3346 29.0003C52.3346 33.1936 51.2285 37.1285 49.2921 40.5293C49.2627 40.5741 49.2344 40.62 49.2073 40.6671C48.4244 42.023 48.889 43.7569 50.245 44.5397C51.5452 45.2904 53.1929 44.8941 54.0164 43.6648L54.0223 43.6682C56.5503 39.3649 58 34.3517 58 29C58 19.7619 53.6804 11.5328 46.9509 6.22205C46.9724 7.08643 46.7637 7.96739 46.2998 8.771C45.703 9.80467 44.7842 10.5365 43.7432 10.9129Z" fill="#38939E"/>
</g>
<circle cx="2.835" cy="2.835" r="2.835" transform="matrix(0.5 -0.866025 -0.866025 -0.5 43.125 10.2109)" fill="#38939E"/>
<path d="M21.2622 37.9934C20.0622 37.9934 18.9789 37.785 18.0122 37.3684C17.0455 36.935 16.2705 36.3267 15.6872 35.5434C15.1205 34.76 14.8372 33.8517 14.8372 32.8184C14.8372 31.7517 15.1122 30.8184 15.6622 30.0184C16.2289 29.2184 16.9705 28.6434 17.8872 28.2934C17.0872 27.9434 16.4539 27.4434 15.9872 26.7934C15.5205 26.1267 15.2872 25.385 15.2872 24.5684C15.2872 23.735 15.5122 22.9684 15.9622 22.2684C16.4122 21.5517 17.0789 20.9767 17.9622 20.5434C18.8622 20.11 19.9622 19.8934 21.2622 19.8934C22.5622 19.8934 23.6539 20.11 24.5372 20.5434C25.4205 20.9767 26.0872 21.5517 26.5372 22.2684C26.9872 22.9684 27.2122 23.735 27.2122 24.5684C27.2122 25.3684 26.9705 26.11 26.4872 26.7934C26.0205 27.46 25.3955 27.96 24.6122 28.2934C25.5455 28.6434 26.2872 29.2184 26.8372 30.0184C27.3872 30.8184 27.6622 31.7517 27.6622 32.8184C27.6622 33.8517 27.3789 34.76 26.8122 35.5434C26.2455 36.3267 25.4705 36.935 24.4872 37.3684C23.5205 37.785 22.4455 37.9934 21.2622 37.9934ZM21.2622 27.3434C22.1289 27.3434 22.8122 27.1184 23.3122 26.6684C23.8122 26.2184 24.0622 25.6434 24.0622 24.9434C24.0622 24.1767 23.8122 23.5767 23.3122 23.1434C22.8289 22.71 22.1455 22.4934 21.2622 22.4934C20.3622 22.4934 19.6705 22.71 19.1872 23.1434C18.7039 23.5767 18.4622 24.1767 18.4622 24.9434C18.4622 25.66 18.7039 26.2434 19.1872 26.6934C19.6872 27.1267 20.3789 27.3434 21.2622 27.3434ZM21.2622 35.3184C22.3289 35.3184 23.1372 35.06 23.6872 34.5434C24.2372 34.01 24.5122 33.3434 24.5122 32.5434C24.5122 31.66 24.2205 30.9684 23.6372 30.4684C23.0705 29.9684 22.2789 29.7184 21.2622 29.7184C20.2455 29.7184 19.4372 29.9684 18.8372 30.4684C18.2539 30.9684 17.9622 31.66 17.9622 32.5434C17.9622 33.3434 18.2372 34.01 18.7872 34.5434C19.3539 35.06 20.1789 35.3184 21.2622 35.3184ZM37.0849 37.9934C35.8015 37.9934 34.6932 37.7684 33.7599 37.3184C32.8432 36.8684 32.1182 36.2517 31.5849 35.4684C31.0682 34.6684 30.7682 33.7684 30.6849 32.7684H33.8099C33.9599 33.485 34.3265 34.085 34.9099 34.5684C35.4932 35.035 36.2182 35.2684 37.0849 35.2684C38.0182 35.2684 38.7765 34.9267 39.3599 34.2434C39.9599 33.56 40.2599 32.71 40.2599 31.6934C40.2599 30.6434 39.9599 29.81 39.3599 29.1934C38.7765 28.5767 38.0349 28.2684 37.1349 28.2684C36.3849 28.2684 35.7349 28.4517 35.1849 28.8184C34.6349 29.185 34.2432 29.6434 34.0099 30.1934H30.9349L32.4349 20.1934H42.1349V22.9934H34.8349L34.0349 27.0434C34.4015 26.6434 34.9015 26.3184 35.5349 26.0684C36.1682 25.8017 36.8765 25.6684 37.6599 25.6684C38.9099 25.6684 39.9515 25.9517 40.7849 26.5184C41.6182 27.0684 42.2515 27.8017 42.6849 28.7184C43.1182 29.6184 43.3349 30.6017 43.3349 31.6684C43.3349 32.885 43.0682 33.9684 42.5349 34.9184C42.0182 35.8684 41.2849 36.6184 40.3349 37.1684C39.4015 37.7184 38.3182 37.9934 37.0849 37.9934Z" fill="#38939E"/>
<defs>
<filter id="filter0_b_651_1876" x="-40" y="-40" width="138" height="124.92" filterUnits="userSpaceOnUse" color-interpolation-filters="sRGB">
<feFlood flood-opacity="0" result="BackgroundImageFix"/>
<feGaussianBlur in="BackgroundImageFix" stdDeviation="20"/>
<feComposite in2="SourceAlpha" operator="in" result="effect1_backgroundBlur_651_1876"/>
<feBlend mode="normal" in="SourceGraphic" in2="effect1_backgroundBlur_651_1876" result="shape"/>
</filter>
</defs>
</svg>
