<svg width="44" height="44" viewBox="0 0 44 44" fill="none" xmlns="http://www.w3.org/2000/svg">
<rect width="44" height="44" rx="10" fill="#E8AD3A"/>
<path d="M22.0001 8.55554C18.6877 8.55554 15.6549 9.75399 13.3116 11.7402C11.9121 10.4553 9.74884 9.74872 9.74884 9.74872C9.74884 9.74872 10.4554 11.912 11.7403 13.3115C9.75411 15.6548 8.55566 18.6876 8.55566 22C8.55566 25.3125 9.75411 28.3452 11.7403 30.6885C10.4554 32.088 9.74884 34.2512 9.74884 34.2512C9.74884 34.2512 11.9121 33.5447 13.3116 32.2598C15.6549 34.246 18.6877 35.4444 22.0001 35.4444C25.3125 35.4444 28.3453 34.246 30.6886 32.2598C32.0881 33.5447 34.2514 34.2512 34.2514 34.2512C34.2514 34.2512 33.5448 32.088 32.2599 30.6885C34.2461 28.3452 35.4446 25.3124 35.4446 22C35.4446 18.6876 34.2461 15.6548 32.2599 13.3115C33.5448 11.912 34.2514 9.74872 34.2514 9.74872C34.2514 9.74872 32.0881 10.4553 30.6886 11.7402C28.3453 9.75399 25.3125 8.55554 22.0001 8.55554ZM22.0001 10.7823C23.4847 10.8054 25.0816 12.0435 24.6554 13.446L23.5378 17.0592C23.3475 17.0004 23.1539 16.9527 22.958 16.9163L23.5882 14.5131C23.8433 13.5247 22.8798 12.6472 21.9917 12.6309C21.1034 12.6472 20.1568 13.5247 20.412 14.5131L21.0422 16.9163C20.8463 16.9527 20.6527 17.0003 20.4624 17.0591L19.3364 13.4459C18.9101 12.0435 20.5156 10.8055 22.0001 10.7823ZM16.0761 13.2022C16.7998 13.1719 17.4787 13.4296 17.8239 14.0761L19.5801 17.4204C19.4036 17.5138 19.2396 17.6189 19.076 17.7313L17.8239 15.5802C17.5321 15.0857 16.9996 14.8868 16.4711 14.9164C16.06 14.9394 15.65 15.1004 15.3703 15.3702C14.7538 16.0097 14.7011 17.3136 15.5804 17.8322L17.7231 19.0841C17.6082 19.2521 17.507 19.4237 17.4122 19.6052L14.0595 17.8406C12.7665 17.1503 13.0174 15.1338 14.0512 14.0677C14.5842 13.551 15.3525 13.2325 16.0763 13.2022H16.0761ZM27.6384 13.2022C28.4342 13.1529 29.3327 13.4864 29.9323 14.0677C30.9658 15.1338 31.2167 17.1503 29.924 17.8406L26.588 19.5967C26.4935 19.4162 26.3833 19.2513 26.2688 19.0841L28.4199 17.8238C29.2992 17.3052 29.238 16.0097 28.6216 15.3702C28.3018 15.0619 27.8132 14.8966 27.3444 14.9164C26.8755 14.9361 26.4357 15.1406 26.1764 15.5802L24.9244 17.7313C24.7555 17.6153 24.5858 17.5077 24.4033 17.412L26.1595 14.0761C26.4614 13.5104 27.0192 13.2406 27.6384 13.2022ZM22.0001 18.1851C24.1074 18.1851 25.815 19.8927 25.815 22C25.815 24.1073 24.1074 25.8148 22.0001 25.8148C19.8928 25.8148 18.1853 24.1073 18.1853 22C18.1853 19.8928 19.8928 18.1851 22.0001 18.1851ZM12.9251 19.2775C13.0985 19.2711 13.2718 19.2938 13.4377 19.3447L17.0593 20.4706C17.0005 20.661 16.9528 20.8546 16.9165 21.0505L14.5049 20.4203C14.3813 20.3884 14.2539 20.3665 14.1351 20.3698C13.3044 20.3936 12.6369 21.2228 12.6226 22C12.639 22.8881 13.5165 23.8431 14.5049 23.5881L16.9165 22.9579C16.9528 23.1538 17.0005 23.3474 17.0593 23.5377L13.4377 24.6637C12.0353 25.0899 10.7971 23.493 10.774 22.0084C10.7941 20.7094 11.7483 19.3195 12.9251 19.2775ZM31.0667 19.2775C32.2435 19.3195 33.1976 20.7094 33.2178 22.0084C33.195 23.493 31.9566 25.0899 30.5541 24.6637L26.941 23.5377C26.9997 23.3474 27.0474 23.1538 27.0838 22.9579L29.487 23.5881C30.4754 23.8431 31.3529 22.8881 31.3692 22C31.3549 21.2228 30.679 20.3937 29.8483 20.3698C29.7296 20.3665 29.6105 20.3884 29.487 20.4202L27.0838 21.0505C27.0474 20.8546 26.9997 20.661 26.941 20.4707L30.5542 19.3447C30.7201 19.2937 30.8933 19.271 31.0668 19.2775L31.0667 19.2775ZM17.4206 24.4032C17.5168 24.5865 17.6147 24.763 17.7315 24.9325L15.5804 26.1846C14.7011 26.7031 14.7455 27.9903 15.3619 28.6298C16.0015 29.2463 17.3053 29.3074 17.8239 28.4281L19.0843 26.2686C19.2505 26.3825 19.4175 26.4853 19.5969 26.5795L17.824 29.9406C17.1336 31.2337 15.1172 30.9824 14.0511 29.949C13.0177 28.8829 12.7667 26.8665 14.0594 26.1762L17.4206 24.4032ZM26.5796 24.42L29.9239 26.1762C31.2169 26.8665 30.966 28.8829 29.9323 29.949C28.8662 30.9825 26.8497 31.2337 26.1594 29.9407L24.3948 26.588C24.5763 26.4932 24.7478 26.3919 24.9158 26.277L26.1678 28.4281C26.6864 29.3074 27.9903 29.2463 28.6298 28.6298C29.2463 27.9903 29.2991 26.7032 28.4197 26.1846L26.2686 24.9326C26.3823 24.768 26.4861 24.5968 26.5796 24.42L26.5796 24.42ZM20.4624 26.9408C20.6527 26.9996 20.8463 27.0473 21.0422 27.0837L20.412 29.4953C20.1568 30.4837 21.1034 31.3612 21.9917 31.3775C22.8797 31.3612 23.8434 30.4837 23.5882 29.4953L22.958 27.0837C23.1539 27.0473 23.3475 26.9996 23.5379 26.9408L24.6554 30.5624C25.0816 31.9649 23.4847 33.203 22.0001 33.2262C20.5155 33.203 18.9101 31.9649 19.3364 30.5624L20.4624 26.9408Z" fill="white"/>
</svg>
