<svg width="44" height="44" viewBox="0 0 44 44" fill="none" xmlns="http://www.w3.org/2000/svg">
<rect width="44" height="44" rx="10" fill="#38939E"/>
<path d="M29.9488 16.4638C30.8354 16.4638 31.6856 16.1116 32.3126 15.4847C32.9395 14.8578 33.2916 14.0075 33.2916 13.1209C33.2916 12.2343 32.9395 11.3841 32.3126 10.7572C31.6856 10.1303 30.8354 9.77808 29.9488 9.77808C29.0622 9.77808 28.212 10.1303 27.5851 10.7572C26.9581 11.3841 26.606 12.2343 26.606 13.1209C26.606 14.0075 26.9581 14.8578 27.5851 15.4847C28.212 16.1116 29.0622 16.4638 29.9488 16.4638Z" stroke="white" stroke-width="2"/>
<path d="M13.9015 17.647L19.2521 15.7937L26.6044 19.303L19.2521 24.7833L26.6044 29.6237L21.9297 35.8508M29.4926 20.9049L31.2857 21.8804L35.2957 18.1123M17.1434 27.5251L15.1578 30.1405L8.55566 33.8444" stroke="white" stroke-width="2" stroke-linecap="round" stroke-linejoin="round"/>
</svg>
