<svg width="28" height="28" viewBox="0 0 28 28" fill="none" xmlns="http://www.w3.org/2000/svg">
<path d="M21.7317 7.47943C22.5909 7.47943 23.4149 7.13811 24.0225 6.53054C24.6301 5.92298 24.9714 5.09894 24.9714 4.23972C24.9714 3.38049 24.6301 2.55646 24.0225 1.94889C23.4149 1.34133 22.5909 1 21.7317 1C20.8724 1 20.0484 1.34133 19.4408 1.94889C18.8333 2.55646 18.4919 3.38049 18.4919 4.23972C18.4919 5.09894 18.8333 5.92298 19.4408 6.53054C20.0484 7.13811 20.8724 7.47943 21.7317 7.47943Z" stroke="white" stroke-width="2"/>
<path d="M6.18096 8.6263L11.3665 6.8302L18.4919 10.2313L11.3665 15.5424L18.4919 20.2336L13.9615 26.2685M21.291 11.7837L23.0288 12.7291L26.9152 9.07727M9.32284 18.1997L7.39844 20.7344L1 24.324" stroke="white" stroke-width="2" stroke-linecap="round" stroke-linejoin="round"/>
</svg>
