<svg width="44" height="44" viewBox="0 0 44 44" fill="none" xmlns="http://www.w3.org/2000/svg">
<rect width="44" height="44" rx="10" fill="#FFD49E"/>
<path d="M20.1828 21.6622C20.1828 20.2808 20.2952 18.7259 20.6545 17.2773C21.0149 15.8239 21.6051 14.5452 22.5081 13.6431C23.5101 12.6407 24.9202 12.0784 26.4794 11.8095C28.0313 11.543 29.6565 11.5821 30.9908 11.7117C31.64 11.7689 32.2484 12.053 32.7091 12.5142C33.1698 12.9753 33.4535 13.584 33.5105 14.2335C33.64 15.5684 33.6791 17.1918 33.4127 18.7467C33.1439 20.3065 32.5818 21.716 31.5798 22.7196C30.6768 23.6229 29.3974 24.2146 27.9433 24.5752C26.4953 24.9346 24.9398 25.0483 23.559 25.0483C22.3371 25.0483 21.3351 26.0409 21.329 27.2658C21.3192 29.3378 21.0601 31.7398 20.1852 33.5857C20.1371 33.5413 20.1046 33.4825 20.0924 33.4182C19.8323 32.3182 19.5178 31.2318 19.1503 30.1629C18.9738 29.6534 18.767 29.155 18.5307 28.6703C18.3132 28.2364 18.0517 27.8061 17.7353 27.4882C17.4175 27.1704 16.9874 26.9088 16.5524 26.6912C16.0676 26.4548 15.5689 26.2479 15.0592 26.0715C13.9894 25.7047 12.9027 25.3893 11.8027 25.1265C11.7395 25.1141 11.6817 25.082 11.6378 25.0348C13.4829 24.1584 15.8901 23.9017 17.9638 23.8931C18.5531 23.8895 19.1171 23.653 19.5328 23.2351C19.9485 22.8172 20.1822 22.2518 20.1828 21.6622ZM21.2117 12.3461C19.9885 13.5697 19.281 15.2005 18.8753 16.8361C18.4684 18.479 18.3487 20.194 18.3499 21.6646C18.3486 21.7687 18.3068 21.8683 18.2333 21.942C18.1598 22.0157 18.0605 22.0579 17.9564 22.0595C15.7924 22.068 13.0491 22.3284 10.8301 23.3882C9.99672 23.7867 9.64847 24.6082 9.82076 25.3869C9.98328 26.1155 10.5723 26.7132 11.369 26.9076C12.3404 27.1447 13.467 27.4516 14.447 27.8C14.937 27.9735 15.3757 28.152 15.7325 28.3305C16.1015 28.5163 16.3276 28.6728 16.4388 28.7852C16.55 28.8952 16.7076 29.1214 16.8921 29.4906C17.0705 29.8475 17.2489 30.2851 17.4224 30.7753C17.7695 31.7545 18.075 32.8816 18.312 33.8522C18.5063 34.6492 19.1038 35.2396 19.8333 35.401C20.6117 35.5746 21.4328 35.2262 21.8312 34.3925C22.8906 32.1762 23.1509 29.4368 23.1631 27.2743C23.1631 27.0616 23.3427 26.8819 23.5578 26.8819C25.0266 26.8819 26.7421 26.7621 28.3844 26.3551C30.0218 25.948 31.6519 25.2402 32.8763 24.0153C34.2448 22.6462 34.9145 20.826 35.2187 19.0572C35.5242 17.2835 35.4741 15.4804 35.3348 14.055C35.2365 12.9827 34.7659 11.9786 34.0048 11.2171C33.2436 10.4557 32.2399 9.98492 31.168 9.88659C29.7432 9.74845 27.9421 9.69833 26.1678 10.0027C24.3997 10.3071 22.5802 10.9782 21.2117 12.3461ZM28.1095 13.4426C28.4336 13.4426 28.7444 13.5714 28.9735 13.8007C29.2027 14.0299 29.3314 14.3408 29.3314 14.665C29.3314 14.9892 29.2027 15.3002 28.9735 15.5294C28.7444 15.7587 28.4336 15.8875 28.1095 15.8875C27.7854 15.8875 27.4746 15.7587 27.2455 15.5294C27.0163 15.3002 26.8876 14.9892 26.8876 14.665C26.8876 14.3408 27.0163 14.0299 27.2455 13.8007C27.4746 13.5714 27.7854 13.4426 28.1095 13.4426Z" fill="white"/>
</svg>
