<svg width="32" height="28" viewBox="0 0 32 28" fill="none" xmlns="http://www.w3.org/2000/svg">
<g clip-path="url(#clip0_547_1927)">
<path d="M31.8539 5.45265C30.8456 7.55748 29.2616 9.26979 27.7856 11.0532C26.9644 12.0459 26.0876 12.9931 25.2459 13.9715C25.1377 14.0967 25.0588 14.2873 25.053 14.4494C24.9594 17.2881 24.0651 19.8651 22.3291 22.1406C19.9939 25.1983 16.8842 27.067 13.0058 27.6814C9.25608 28.2759 5.88043 27.3543 2.83504 25.2097C1.73028 24.4331 0.856412 23.4376 0.423861 22.1548C-0.192816 20.3259 0.184205 18.221 2.12192 16.7903C2.60707 16.4319 3.09808 16.0821 3.55401 15.6924C4.65877 14.7481 4.66169 13.2718 3.56278 12.3218C3.11561 11.935 2.63338 11.5908 2.15407 11.2409C0.707358 10.1771 0.0409953 8.7635 0.169592 7.00567C0.257271 5.83379 0.774578 4.82973 1.55492 3.95366C2.76782 2.59405 4.32266 1.72083 6.0178 1.07231C8.03734 0.301489 10.1241 -0.0284585 12.2869 0.224691C15.8086 0.63428 18.7985 2.08207 21.2301 4.59365C22.4284 5.83379 23.3549 7.24745 24.0183 8.82323C24.0534 8.90287 24.0943 8.98251 24.1411 9.07638C24.8542 8.50181 25.5352 7.91587 26.2512 7.38113C27.3531 6.55626 28.4754 5.75699 29.6035 4.96626C29.8929 4.76431 30.226 4.61356 30.5563 4.47987C31.1642 4.23526 31.5178 4.3661 31.8481 4.91222V5.45549L31.8539 5.45265ZM23.7991 15.6981C23.7641 15.6895 23.7319 15.681 23.6969 15.6696C23.6413 15.7265 23.5858 15.7834 23.5303 15.8403C22.3817 17.0349 21.2448 18.2409 20.0815 19.4214C19.6753 19.8338 19.3801 20.2604 19.2048 20.8208C18.6933 22.4421 17.6938 23.6936 16.0132 24.3051C13.9382 25.0589 11.9011 24.729 9.89322 24.0122C9.62434 23.9155 9.51035 23.6822 9.56004 23.4006C9.60972 23.119 9.79093 22.9484 10.0803 22.9256C10.7905 22.8716 11.2113 22.4933 11.3838 21.8391C11.5124 21.3442 11.6322 20.8492 11.7433 20.3486C12.1407 18.5624 12.8743 17.0122 15.6216 16.5656C15.7531 16.5429 15.8992 16.4803 15.9957 16.3921C18.325 14.2901 20.6485 12.1824 22.9779 10.0804C23.1299 9.94391 23.1649 9.84151 23.0889 9.65094C22.4372 7.95285 21.4552 6.46524 20.1634 5.16252C16.9514 1.92847 11.679 0.310022 6.98811 1.95691C5.33098 2.53717 3.79951 3.30515 2.572 4.57089C0.917788 6.27467 0.751197 8.92562 3.08054 10.4872C3.51309 10.7773 3.92519 11.0959 4.32266 11.4344C5.34559 12.3076 5.72846 13.4084 5.48003 14.7082C5.30759 15.6184 4.73476 16.2755 4.01579 16.833C3.52478 17.2141 3.00748 17.5697 2.53693 17.9707C1.46724 18.8838 1.16037 20.0557 1.4351 21.3783C1.66014 22.4563 2.31189 23.3068 3.16822 23.978C6.04995 26.2365 9.34669 27.1893 12.9912 26.5095C18.214 25.5339 21.6744 22.5103 23.3491 17.5896C23.5566 16.978 23.6501 16.3295 23.7962 15.6981H23.7991ZM18.9388 18.9634C18.9885 18.9037 19.0323 18.8354 19.0878 18.7757C21.3909 16.2982 23.7378 13.8606 25.9824 11.3348C27.4203 9.71352 28.7063 7.96423 30.0565 6.26898C30.1237 6.18365 30.1734 6.0841 30.229 5.99023C30.2056 5.97317 30.1793 5.95326 30.1559 5.93619C25.4154 9.26126 21.1658 13.1381 16.9514 17.0776C17.6295 17.7204 18.2637 18.3234 18.9388 18.9634ZM11.8426 23.3779C12.8918 23.5827 13.8943 23.6566 14.8968 23.4376C16.741 23.0309 17.7259 21.8049 18.1877 20.104C18.2081 20.0272 18.1468 19.8992 18.0825 19.8338C17.5739 19.3218 17.0566 18.8183 16.5422 18.3121C15.832 17.6152 15.7443 17.5953 14.7974 17.9764C14.6367 18.0418 14.4788 18.1186 14.3298 18.204C13.5144 18.679 13.1841 19.4526 12.9708 20.3003C12.7048 21.3527 12.6347 22.4677 11.8426 23.3779Z" fill="white"/>
<path d="M10.8194 27.9999C7.98154 27.9999 5.27517 27.1039 2.74709 25.3262C1.51958 24.4615 0.689546 23.4119 0.283298 22.2002C-0.432749 20.0783 0.221923 18.0133 2.03104 16.6764L2.27654 16.4972C2.6711 16.2071 3.08027 15.9056 3.45729 15.5842C3.95998 15.1547 4.23763 14.5943 4.23763 14.0056C4.23763 13.4196 3.96583 12.8593 3.46606 12.4269C3.08611 12.097 2.66817 11.7926 2.26485 11.4968L2.06903 11.3518C0.578485 10.2595 -0.108336 8.79466 0.0231832 6.99702C0.10794 5.86496 0.57264 4.84098 1.44651 3.85968C2.54542 2.62806 3.98044 1.69795 5.96784 0.94135C8.08967 0.12786 10.2203 -0.159422 12.3041 0.0823499C15.8639 0.494784 18.9005 1.97955 21.338 4.49682C22.5304 5.72843 23.4803 7.16768 24.1554 8.76906C24.1671 8.79751 24.1788 8.82311 24.1934 8.85155C24.3659 8.71218 24.5354 8.5728 24.7049 8.43343C25.1784 8.04375 25.6664 7.64269 26.1662 7.27008C27.1278 6.5533 28.1945 5.78247 29.5243 4.85236C29.8458 4.62766 30.2199 4.46553 30.5093 4.34891C31.1727 4.08154 31.614 4.22944 31.9823 4.83814L32.0027 4.87227L31.9881 5.51226C31.1347 7.29568 29.8546 8.81742 28.6183 10.288C28.3787 10.5724 28.139 10.8568 27.9023 11.1441C27.4142 11.7357 26.8969 12.3188 26.3971 12.8849C26.0493 13.2774 25.7044 13.6671 25.3625 14.0653C25.2748 14.1705 25.2076 14.3298 25.2047 14.4578C25.1111 17.3448 24.1817 19.9617 22.4515 22.2286C20.0842 25.329 16.9161 27.212 13.0348 27.8264C12.2895 27.943 11.553 28.0027 10.8253 28.0027L10.8194 27.9999ZM10.8691 0.2843C9.28211 0.2843 7.67466 0.591492 6.07013 1.20588C4.1295 1.94826 2.72955 2.84992 1.66279 4.0474C0.832755 4.97751 0.391436 5.95029 0.312525 7.01693C0.186851 8.71217 0.835678 10.0945 2.24147 11.127L2.43729 11.2721C2.84646 11.5708 3.26732 11.8808 3.65603 12.2164C4.2201 12.7028 4.52697 13.34 4.52697 14.0084C4.52697 14.6797 4.21133 15.314 3.64726 15.7975C3.26439 16.1246 2.84938 16.429 2.44898 16.7219L2.2064 16.9011C0.499574 18.1612 -0.117104 20.1067 0.558027 22.1092C0.946738 23.2611 1.73877 24.2652 2.9166 25.0929C6.02629 27.2802 9.41071 28.1051 12.9793 27.5391C16.7845 26.9361 19.8884 25.0901 22.209 22.0523C23.907 19.8308 24.813 17.2709 24.9066 14.4407C24.9124 14.2502 25.0001 14.0283 25.1316 13.8747C25.4735 13.4765 25.8213 13.084 26.1691 12.6915C26.6689 12.1283 27.1833 11.5452 27.6685 10.9592C27.9052 10.6719 28.1448 10.3875 28.3845 10.1031C29.6032 8.65529 30.8629 7.1563 31.7017 5.41839V4.94623C31.4124 4.48259 31.1347 4.39726 30.6116 4.60775C30.3368 4.71868 29.9832 4.86943 29.688 5.07707C28.3611 6.00718 27.2973 6.77231 26.3386 7.48909C25.8447 7.85602 25.38 8.24001 24.889 8.64391C24.6727 8.8231 24.4535 9.0023 24.2314 9.1815L24.0853 9.29811L23.9596 9.03928C23.9304 8.97955 23.9041 8.9255 23.8807 8.86862C23.2173 7.29852 22.2908 5.89056 21.1217 4.6817C18.7369 2.22416 15.7587 0.770688 12.2691 0.363943C11.8044 0.3099 11.3397 0.2843 10.8691 0.2843ZM10.7025 26.8678C7.9903 26.8678 5.43299 25.9377 3.0715 24.0889C2.09826 23.3266 1.49619 22.4249 1.28576 21.4066C0.984732 19.9617 1.37344 18.7699 2.43436 17.8654C2.74124 17.6037 3.0715 17.3562 3.39299 17.1201C3.56835 16.9893 3.74663 16.8585 3.91906 16.7219C4.7374 16.0876 5.18457 15.4391 5.3307 14.6825C5.57036 13.4281 5.19626 12.3729 4.2201 11.5395C3.79924 11.1811 3.39591 10.8739 2.99259 10.6037C1.94044 9.89828 1.32084 8.94257 1.20101 7.83326C1.07241 6.65569 1.53127 5.43261 2.46067 4.47406C3.54497 3.35622 4.96537 2.51429 6.93231 1.82311C11.4186 0.247323 16.7758 1.55289 20.2596 5.06853C21.5747 6.39401 22.5684 7.92144 23.2173 9.60531C23.3108 9.84708 23.267 10.0092 23.0682 10.1912C21.8495 11.2892 20.6337 12.3899 19.4178 13.4907C18.3072 14.4948 17.1966 15.4988 16.086 16.5029C15.972 16.6053 15.8025 16.6849 15.6359 16.7105C13.1049 17.123 12.3012 18.4769 11.8774 20.3855C11.7488 20.96 11.6348 21.4351 11.5179 21.8788C11.325 22.6126 10.8428 23.0137 10.0829 23.0706C9.86372 23.0876 9.7322 23.2071 9.69713 23.4261C9.67375 23.557 9.67667 23.7873 9.93678 23.8812C12.3187 24.7317 14.1746 24.8227 15.9545 24.1742C17.4743 23.6224 18.5177 22.4789 19.0554 20.7808C19.2279 20.2376 19.5084 19.7882 19.9673 19.3245C20.7973 18.4826 21.6303 17.6151 22.4311 16.7731C22.7584 16.429 23.0857 16.0876 23.4131 15.7463L23.6411 15.5131L23.9625 15.5984L23.9304 15.7321C23.8836 15.9312 23.8427 16.1303 23.8018 16.3322C23.7141 16.7646 23.6235 17.2112 23.4774 17.6378C21.7735 22.6411 18.2517 25.6732 13.0085 26.6545C12.2252 26.7995 11.4536 26.8735 10.6937 26.8735L10.7025 26.8678ZM10.8896 1.44765C9.5773 1.44765 8.27088 1.65813 7.0346 2.09048C5.1115 2.76459 3.72617 3.58377 2.67402 4.66748C1.80307 5.5663 1.37344 6.70974 1.49035 7.80198C1.60141 8.8231 2.18009 9.71055 3.15918 10.3676C3.57127 10.6435 3.98336 10.9564 4.41299 11.3233C5.47099 12.225 5.87723 13.3713 5.61712 14.7309C5.4593 15.5586 4.97706 16.2611 4.10027 16.9409C3.92491 17.0775 3.74663 17.2083 3.56835 17.342C3.2527 17.5752 2.92829 17.8199 2.62726 18.0758C1.64817 18.9092 1.29453 20.01 1.57218 21.3469C1.77092 22.2969 2.33499 23.1445 3.25563 23.8641C6.20749 26.1766 9.47208 27.0186 12.9617 26.3672C18.0939 25.4086 21.5397 22.4391 23.2085 17.5411C23.3488 17.1315 23.4365 16.6935 23.5241 16.2697C23.5446 16.1758 23.5621 16.0819 23.5826 15.9881C23.2728 16.3123 22.9601 16.6366 22.6503 16.9609C21.8465 17.8028 21.0136 18.6732 20.1806 19.5151C19.7539 19.9474 19.4938 20.3599 19.336 20.8576C18.7719 22.6439 17.6672 23.8471 16.0568 24.433C14.2301 25.0958 12.2544 25.0047 9.83449 24.14C9.51008 24.0234 9.34641 23.7305 9.40778 23.3721C9.46624 23.0222 9.70589 22.806 10.0595 22.7804C10.6879 22.7321 11.0737 22.4107 11.2344 21.802C11.3513 21.3611 11.4653 20.8889 11.591 20.3172C12.0411 18.2977 12.8945 16.8613 15.5863 16.4233C15.6973 16.4062 15.8142 16.3522 15.8844 16.2867C16.995 15.2855 18.1056 14.2786 19.2162 13.2745C20.432 12.1738 21.6478 11.073 22.8666 9.97508C22.9805 9.87268 22.9922 9.83001 22.9396 9.69917C22.3054 8.05228 21.3322 6.55899 20.0462 5.25911C17.6029 2.79304 14.2185 1.44196 10.8837 1.44196L10.8896 1.44765ZM13.6164 23.7162C13.0699 23.7162 12.4795 23.6508 11.8102 23.52L11.5676 23.4716L11.7284 23.2867C12.3275 22.5984 12.4941 21.7991 12.6724 20.9515C12.7221 20.7211 12.7688 20.4936 12.8244 20.266C13.0202 19.4838 13.3446 18.6106 14.2506 18.0815C14.4026 17.9934 14.5662 17.9109 14.7387 17.8426C15.7353 17.4416 15.896 17.4728 16.6442 18.2095L17.03 18.5878C17.4187 18.9661 17.8045 19.3473 18.1874 19.7313C18.2634 19.8081 18.3686 19.9873 18.3277 20.138C17.8045 22.0637 16.691 23.1872 14.9257 23.574C14.5049 23.665 14.0782 23.7134 13.6164 23.7134V23.7162ZM12.1025 23.2839C13.1838 23.4745 14.0431 23.4802 14.8614 23.2981C16.5098 22.9369 17.5503 21.8788 18.0442 20.0669C18.0442 20.0442 18.015 19.973 17.974 19.9304C17.5941 19.5464 17.2083 19.1681 16.8225 18.7898L16.4367 18.4115C15.7675 17.7544 15.7382 17.7487 14.8527 18.1071C14.6948 18.1697 14.5458 18.2437 14.4055 18.3262C13.593 18.8012 13.2949 19.609 13.1137 20.3343C13.0582 20.5561 13.0114 20.7808 12.9646 21.0084C12.801 21.7821 12.6344 22.5813 12.1083 23.2839H12.1025ZM18.9502 19.1766L16.7378 17.0775L16.8459 16.9751C21.1071 12.9958 25.3245 9.14736 30.0679 5.82229L30.1556 5.75972L30.4157 5.95882L30.3485 6.06691C30.331 6.09535 30.3134 6.1238 30.2988 6.15224C30.2579 6.22335 30.217 6.29446 30.1673 6.35703C29.7581 6.86902 29.3548 7.38954 28.9515 7.90722C28.0396 9.08194 27.0927 10.2965 26.0873 11.4285C24.5178 13.1977 22.8724 14.9499 21.2796 16.6423C20.581 17.3847 19.8855 18.127 19.1928 18.8723C19.1577 18.9092 19.1285 18.9491 19.0963 18.9889L18.9502 19.1766ZM17.1557 17.0775L18.9181 18.75C18.9356 18.7272 18.9561 18.7045 18.9765 18.6817C19.6692 17.9365 20.3677 17.1941 21.0662 16.4517C22.6561 14.7593 24.3045 13.0072 25.8681 11.2437C26.8676 10.1173 27.8087 8.90559 28.7206 7.73656C29.0742 7.28146 29.4279 6.82636 29.7874 6.3741C25.2836 9.5854 21.2386 13.2717 17.1586 17.0803L17.1557 17.0775Z" fill="white"/>
<path d="M10.3491 6.33159C10.3491 4.9606 11.4977 3.83423 12.9006 3.83423C14.3268 3.83423 15.5017 4.95776 15.5047 6.32305C15.5047 7.68551 14.3473 8.81757 12.9473 8.82041C11.5182 8.8261 10.355 7.70826 10.352 6.33159H10.3491ZM11.5416 6.3259C11.5416 7.06544 12.1465 7.65422 12.9152 7.6656C13.6634 7.67698 14.3035 7.06828 14.3151 6.34296C14.3268 5.60627 13.6897 4.98904 12.9152 4.98904C12.1553 4.98904 11.5445 5.58352 11.5445 6.3259H11.5416Z" fill="white"/>
<path d="M12.9355 8.9626C12.2049 8.9626 11.5151 8.6867 10.9978 8.18609C10.4864 7.68832 10.2029 7.03127 10.2 6.3344C10.2 5.63184 10.4805 4.9691 10.9949 4.46849C11.5064 3.97073 12.1815 3.69482 12.8975 3.69482C14.4115 3.69482 15.6448 4.87524 15.6448 6.32587C15.6448 7.7765 14.4319 8.9626 12.9414 8.96545H12.9326L12.9355 8.9626ZM12.9005 3.97642C12.2633 3.97642 11.6613 4.22103 11.2053 4.6676C10.7465 5.11417 10.4951 5.7058 10.4951 6.3344C10.4951 6.95732 10.7494 7.54326 11.2053 7.98698C11.6671 8.43355 12.2809 8.68101 12.9355 8.68101H12.9443C14.2537 8.67816 15.3584 7.5973 15.3584 6.32587C15.3584 5.03168 14.2566 3.97926 12.9034 3.97926L12.9005 3.97642ZM12.9326 7.80779C12.9326 7.80779 12.918 7.80779 12.9092 7.80779C12.0588 7.79641 11.3924 7.14505 11.3924 6.32587C11.3924 5.50953 12.0734 4.8468 12.9092 4.8468C13.3272 4.8468 13.7217 5.00608 14.0169 5.29905C14.3063 5.58349 14.4612 5.95326 14.4553 6.34293C14.4495 6.73261 14.2829 7.10238 13.9877 7.38113C13.6984 7.65703 13.3213 7.80779 12.9297 7.80779H12.9326ZM11.6876 6.32587C11.6876 6.98576 12.2253 7.51197 12.918 7.52335C13.2366 7.52904 13.5493 7.40673 13.789 7.17918C14.0286 6.95163 14.1631 6.65297 14.1689 6.34009C14.1747 6.02721 14.0491 5.72855 13.8153 5.49816C13.5756 5.26207 13.257 5.13123 12.9151 5.13123C12.24 5.13123 11.6905 5.66882 11.6905 6.32587H11.6876Z" fill="white"/>
<path d="M9.39921 20.5506C9.39629 21.9302 8.236 23.0452 6.80975 23.0366C5.41273 23.0309 4.25244 21.896 4.25244 20.5364C4.25244 19.1711 5.43027 18.0447 6.85359 18.0504C8.25646 18.0561 9.40506 19.1825 9.40213 20.5506H9.39921ZM8.21262 20.5364C8.2097 19.8026 7.58133 19.1996 6.83021 19.2053C6.0674 19.2109 5.43903 19.8139 5.43611 20.5364C5.43611 21.2617 6.06156 21.8733 6.8156 21.8818C7.58718 21.8903 8.21554 21.2816 8.21262 20.5336V20.5364Z" fill="white"/>
<path d="M6.82134 23.1788H6.80964C5.3454 23.1731 4.1062 21.9614 4.1062 20.5364C4.1062 19.8424 4.3897 19.1882 4.90408 18.6904C5.42431 18.1841 6.11406 17.9082 6.84179 17.9082H6.85348C8.34403 17.9139 9.55108 19.1 9.54524 20.5506C9.54524 21.2532 9.25882 21.9131 8.74736 22.408C8.23297 22.9058 7.54907 23.1788 6.82134 23.1788ZM6.84179 18.1926C6.19004 18.1926 5.57337 18.4401 5.10867 18.8924C4.64981 19.3361 4.39847 19.922 4.39847 20.5364C4.39847 21.8078 5.50322 22.8887 6.80964 22.8944C7.47893 22.8944 8.07807 22.6526 8.53985 22.206C8.9987 21.7652 9.25005 21.1764 9.25297 20.5478C9.2559 19.2536 8.18036 18.1955 6.85056 18.1898H6.84179V18.1926ZM6.83303 22.0269C6.83303 22.0269 6.82133 22.0269 6.81549 22.0269C5.98546 22.0183 5.28987 21.3357 5.29279 20.5364C5.29279 19.7314 5.98546 19.0687 6.8301 19.063H6.84472C7.2422 19.063 7.61922 19.2138 7.90856 19.4925C8.20082 19.7713 8.36157 20.1439 8.36157 20.5364C8.36157 20.9375 8.20374 21.3129 7.91148 21.5945C7.62214 21.8733 7.2422 22.0269 6.83595 22.0269H6.83303ZM6.84179 19.3475H6.8301C6.14328 19.3531 5.58506 19.8879 5.58214 20.5392C5.58214 21.1849 6.1462 21.7367 6.81841 21.7424C7.15159 21.7367 7.46724 21.623 7.70397 21.3926C7.94071 21.165 8.0693 20.8607 8.0693 20.5364C8.0693 20.2207 7.93778 19.9192 7.70105 19.6945C7.46724 19.4698 7.16328 19.3475 6.84179 19.3475Z" fill="white"/>
<path d="M21.2798 10.2938C21.274 11.6761 20.1079 12.7968 18.6875 12.7797C17.2875 12.7627 16.1272 11.6278 16.1331 10.2738C16.1389 8.88579 17.3021 7.79071 18.7635 7.79924C20.1488 7.80778 21.2828 8.9313 21.2769 10.2909L21.2798 10.2938ZM18.7079 11.6107C19.4824 11.6164 20.0903 11.039 20.0962 10.2966C20.0991 9.55138 19.4707 8.93984 18.7021 8.94553C17.9539 8.94837 17.3167 9.5656 17.3197 10.2881C17.3197 11.0134 17.9451 11.6079 18.7108 11.6135L18.7079 11.6107Z" fill="white"/>
<path d="M18.7195 12.9248C18.7195 12.9248 18.6991 12.9248 18.6874 12.9248C17.2202 12.9077 15.9839 11.696 15.9898 10.2767C15.9898 9.57983 16.2733 8.92562 16.7789 8.43923C17.302 7.93293 18.0181 7.66841 18.7692 7.66272C20.2422 7.67125 21.4346 8.85167 21.4288 10.2966C21.4288 11.0049 21.1395 11.6676 20.6192 12.1682C20.1078 12.6574 19.4356 12.9277 18.7224 12.9277L18.7195 12.9248ZM18.7517 7.94431C18.0765 7.94431 17.4482 8.19177 16.9835 8.63834C16.5334 9.07353 16.282 9.65378 16.282 10.2767C16.2791 11.5424 17.3809 12.6233 18.6932 12.6404C19.3362 12.6517 19.9499 12.4071 20.4117 11.9634C20.8764 11.5197 21.1336 10.9252 21.1365 10.2938C21.1424 9.00526 20.0785 7.95 18.7692 7.94431H18.7546H18.7517ZM18.7224 11.7529H18.7107C17.8661 11.7472 17.1764 11.0873 17.1734 10.2852C17.1734 9.48596 17.8719 8.80616 18.702 8.80047H18.7107C19.1199 8.80047 19.5057 8.95691 19.795 9.2385C20.0873 9.52294 20.2451 9.89555 20.2451 10.2938C20.2451 10.6863 20.0873 11.0532 19.8038 11.3263C19.5203 11.5993 19.1345 11.7501 18.7224 11.7501V11.7529ZM18.7107 9.08775H18.7049C18.0327 9.09059 17.4657 9.63956 17.4657 10.2852C17.4657 10.9337 18.0268 11.4628 18.7137 11.4685C19.0527 11.477 19.3683 11.349 19.5992 11.1272C19.8272 10.9081 19.9529 10.6152 19.9529 10.2966C19.9529 9.97519 19.8243 9.67085 19.5905 9.4433C19.3537 9.2129 19.0439 9.08775 18.7107 9.08775Z" fill="white"/>
<path d="M6.12001 5.7428C7.54626 5.75986 8.68901 6.86632 8.68316 8.22593C8.67732 9.60546 7.50242 10.7261 6.08493 10.7062C4.65869 10.6863 3.51301 9.57417 3.52178 8.22309C3.53055 6.84073 4.69668 5.72858 6.12001 5.74564V5.7428ZM4.72298 8.20034C4.71422 8.94841 5.30751 9.54288 6.07324 9.55141C6.8682 9.55995 7.47611 8.98823 7.48196 8.22593C7.48488 7.49209 6.89743 6.9033 6.14631 6.89192C5.34843 6.8777 4.73175 7.44373 4.72298 8.20034Z" fill="white"/>
<path d="M6.12578 10.8485C6.12578 10.8485 6.09948 10.8485 6.08487 10.8485C4.58263 10.8257 3.36681 9.64817 3.3785 8.22029C3.38435 7.51489 3.67077 6.85215 4.18807 6.35723C4.7083 5.85946 5.38636 5.5864 6.12286 5.60063C7.62218 5.61769 8.838 6.79526 8.82923 8.22598C8.8263 8.93139 8.53696 9.59413 8.01381 10.0919C7.50235 10.5783 6.83306 10.8456 6.12578 10.8456V10.8485ZM6.09071 5.88506C5.45065 5.88506 4.84859 6.12399 4.39266 6.56202C3.93088 7.0029 3.67369 7.59453 3.67077 8.22314C3.662 9.49457 4.7463 10.5441 6.09071 10.5641C6.73077 10.5726 7.34745 10.3337 7.81215 9.88994C8.27685 9.44622 8.53696 8.85459 8.53989 8.22598C8.54573 6.9517 7.46143 5.90213 6.11994 5.88791C6.11117 5.88791 6.09948 5.88791 6.09071 5.88791V5.88506ZM6.09656 9.69368C6.09656 9.69368 6.08194 9.69368 6.0761 9.69368C5.66693 9.68799 5.28699 9.53155 5.00641 9.2528C4.72584 8.97405 4.57386 8.59859 4.57971 8.20038C4.58555 7.80217 4.74338 7.43525 5.02687 7.16788C5.31914 6.89197 5.7283 6.74691 6.15209 6.7526C6.98504 6.76682 7.63679 7.41534 7.63094 8.22883C7.63094 8.62988 7.4702 9.0025 7.1867 9.27271C6.90028 9.54577 6.5145 9.69368 6.09656 9.69368ZM6.11994 7.03419C5.77507 7.03419 5.46234 7.15365 5.23146 7.36983C5.00349 7.58315 4.87782 7.87897 4.87197 8.20323C4.86905 8.52749 4.98888 8.82899 5.21392 9.05369C5.43896 9.2784 5.74584 9.4064 6.07902 9.40924C6.43851 9.40924 6.74831 9.29262 6.98212 9.06792C7.21008 8.8489 7.33576 8.55024 7.33868 8.22598C7.3416 7.56893 6.81845 7.04557 6.14624 7.03419C6.13748 7.03419 6.12871 7.03419 6.11994 7.03419Z" fill="white"/>
</g>
<defs>
<clipPath id="clip0_547_1927">
<rect width="32" height="28" fill="white"/>
</clipPath>
</defs>
</svg>
