<svg width="44" height="44" viewBox="0 0 44 44" fill="none" xmlns="http://www.w3.org/2000/svg">
<rect width="44" height="44" rx="10" fill="#81D4DF"/>
<path d="M8.55542 20.6179C8.56211 19.0099 8.90332 17.4193 9.55914 15.9389C10.215 14.4585 11.1723 13.1179 12.3752 11.9953C13.5781 10.8727 15.0026 9.99063 16.5655 9.40052C18.1284 8.81042 19.7984 8.5241 21.4781 8.55828C23.1579 8.59245 24.8137 8.94643 26.349 9.59957C27.8843 10.2527 29.2683 11.1919 30.4203 12.3624C31.5723 13.5329 32.4692 14.9113 33.0587 16.417C33.6481 17.9228 33.9184 19.5258 33.8537 21.1326C33.3343 20.9968 32.8098 20.8791 32.2815 20.7799V20.6194C32.2837 19.1182 31.9517 17.6336 31.3075 16.2648C30.6632 14.8959 29.7216 13.6742 28.5454 12.6809L28.4363 12.793C28.1183 13.123 27.677 13.5741 27.1899 14.0585C26.2376 15.0062 25.0529 16.137 24.2557 16.7123C24.3032 16.8122 24.4139 16.9787 24.6385 17.2557L24.8362 17.4949C25.3361 18.0959 26.0589 18.9663 26.3515 20.0427C26.4275 20.3222 26.4855 20.5796 26.5255 20.8147C25.9877 20.9278 25.4779 21.0721 24.996 21.2477C24.954 20.9703 24.8959 20.6954 24.822 20.4242C24.6195 19.6809 24.126 19.0799 23.6135 18.4562L23.3874 18.1822C23.1343 17.8703 22.8148 17.4586 22.6977 17.0165C22.6207 16.7433 22.6345 16.4539 22.7373 16.1885C22.8511 15.9008 23.0584 15.6798 23.294 15.5103C23.971 15.0258 25.0767 13.9768 26.051 13.0094C26.5287 12.5341 26.9621 12.0905 27.2753 11.7651L27.2848 11.756C25.3663 10.5488 23.1019 9.94491 20.8075 10.0287C20.9926 10.3648 21.2061 10.7917 21.396 11.2746C21.8404 12.4039 22.2295 14.0252 21.5304 15.4497C20.8914 16.7516 19.7952 17.0907 18.949 17.2996L18.7956 17.3375C17.9952 17.5343 17.6014 17.6311 17.3246 18.0338C17.0557 18.4229 17.1221 18.9028 17.3831 19.7187L17.4448 19.9064C17.5492 20.2258 17.671 20.5982 17.7342 20.9479C17.8133 21.3809 17.8307 21.9107 17.5555 22.4164C17.3172 22.8798 16.9363 23.2623 16.4641 23.5124C16.0937 23.6919 15.6951 23.8121 15.2841 23.8681L15.1449 23.8908C14.4996 23.9998 14.1247 24.0619 13.7736 24.4222C13.492 24.7098 13.3307 25.1912 13.2405 25.8467C13.2056 26.1154 13.1781 26.385 13.1583 26.6551L13.1456 26.7989C13.1235 27.1063 13.0818 27.4122 13.0207 27.7147L13.0143 27.745C14.6294 29.4469 16.779 30.5999 19.1388 31.03C18.8457 31.4781 18.5747 31.9393 18.3258 32.4137C15.5455 31.7909 13.0671 30.2865 11.2932 28.145C9.51942 26.0035 8.55454 23.3507 8.55542 20.6179ZM19.3081 10.557C19.2411 10.441 19.1715 10.3265 19.0993 10.2134C17.3648 10.5362 15.7361 11.2515 14.3493 12.2994C12.9626 13.3474 11.8578 14.6977 11.1274 16.2376C10.397 17.7775 10.0621 19.4623 10.1507 21.1513C10.2393 22.8403 10.7488 24.4845 11.6366 25.9466C11.6472 25.8477 11.6593 25.7478 11.673 25.6469C11.7711 24.9399 11.9783 24.0437 12.6173 23.3897C13.3481 22.6404 14.2386 22.4996 14.8365 22.4058L15.0073 22.377C15.3284 22.3225 15.5388 22.271 15.708 22.1832C15.9025 22.0742 16.0575 21.911 16.1525 21.7155C16.1984 21.6337 16.2284 21.4929 16.1762 21.2068C16.1195 20.9316 16.0429 20.6605 15.9469 20.3954L15.8709 20.1638C15.6305 19.4114 15.2794 18.2533 16.0054 17.1997C16.6381 16.2808 17.6488 16.0462 18.3416 15.8842L18.5536 15.8342C19.2922 15.6526 19.7747 15.4679 20.0989 14.8048C20.5118 13.9631 20.3251 12.849 19.9154 11.8075C19.7464 11.3765 19.5433 10.9585 19.3081 10.557ZM35.3263 23.2474C35.2554 23.1378 35.1565 23.0473 35.0389 22.9845C34.9212 22.9217 34.7888 22.8887 34.6541 22.8887H34.6414L34.6003 22.8826L34.4563 22.8569C34.2977 22.8214 34.14 22.782 33.9834 22.7388L33.8331 22.6979C33.3929 22.5764 32.9494 22.4664 32.5029 22.3679C30.9725 22.0308 29.3921 21.9529 27.8336 22.1378C25.9324 22.3649 24.4788 22.981 23.487 23.8666C22.4905 24.7567 22.0002 25.8891 22.0002 27.0456C22.0012 27.3222 22.0213 27.5846 22.0603 27.8328C23.7211 26.4446 25.7695 25.3229 28.0329 24.457C28.1298 24.4176 28.2339 24.3971 28.3391 24.3966C28.4443 24.3962 28.5486 24.4159 28.6458 24.4546C28.743 24.4932 28.8311 24.55 28.9051 24.6217C28.979 24.6934 29.0373 24.7784 29.0765 24.8719C29.1156 24.9654 29.1349 25.0654 29.1331 25.1662C29.1314 25.2669 29.1086 25.3662 29.0663 25.4584C29.0239 25.5506 28.9627 25.6338 28.8863 25.703C28.8099 25.7723 28.7198 25.8263 28.6213 25.8618C27.4135 26.3197 26.2501 26.8785 25.1447 27.5316C22.5316 28.9909 20.904 30.865 19.7114 33.1479C19.6252 33.3264 19.615 33.5301 19.683 33.7157C19.751 33.9013 19.8919 34.0543 20.0757 34.1423C20.2595 34.2303 20.4719 34.2463 20.6678 34.187C20.8638 34.1277 21.0279 33.9977 21.1255 33.8246C21.7329 32.6635 22.4589 31.6204 23.4158 30.694C23.4475 30.7505 23.4844 30.8125 23.5266 30.8802C23.7569 31.253 24.0284 31.6012 24.3364 31.9186C25.0719 32.6771 26.2566 33.4855 27.9317 33.4855C28.963 33.4855 29.8203 33.2327 30.5226 32.7952C31.2185 32.3622 31.7215 31.7733 32.098 31.1542C32.6816 30.2005 33.0138 29.0651 33.2606 28.2234C33.3228 28.0105 33.3802 27.8202 33.433 27.6527C33.6951 26.8704 34.0451 26.1177 34.4769 25.4077C34.6636 25.0943 34.8391 24.8218 34.9894 24.5872L35.0163 24.5478C35.1476 24.3435 35.2804 24.1391 35.3611 23.9832C35.4212 23.8678 35.4496 23.7397 35.4435 23.611C35.4374 23.4822 35.3971 23.3571 35.3263 23.2474Z" fill="white"/>
</svg>
