<svg width="58" height="47" viewBox="0 0 58 47" fill="none" xmlns="http://www.w3.org/2000/svg">
<g filter="url(#filter0_b_414_1749)">
<path fill-rule="evenodd" clip-rule="evenodd" d="M3.97775 44.5447C1.44967 40.2363 0 35.2172 0 29.8591C0 13.8238 12.9837 0.824707 29 0.824707C32.8031 0.824707 36.4352 1.55765 39.7631 2.89015C39.0004 3.30419 38.3387 3.92768 37.873 4.73515C37.2775 5.76789 37.1026 6.92822 37.2952 8.01725C34.7181 7.03582 31.9224 6.49841 29.0013 6.49841C16.1147 6.49841 5.66797 16.9575 5.66797 29.8594C5.66797 34.0517 6.77096 37.986 8.70225 41.3875C8.73506 41.437 8.76654 41.4878 8.79661 41.54C9.57948 42.8975 9.11489 44.6334 7.75893 45.4172C6.45814 46.1691 4.80958 45.7717 3.98644 44.5396L3.97775 44.5447ZM43.7432 11.7505C48.9866 16.0343 52.3346 22.5554 52.3346 29.8594C52.3346 34.0576 51.2285 37.9972 49.2921 41.4019C49.2627 41.4468 49.2344 41.4929 49.2073 41.54C48.4244 42.8975 48.889 44.6334 50.245 45.4172C51.5452 46.1688 53.1929 45.772 54.0164 44.5412L54.0223 44.5447C56.5503 40.2363 58 35.2172 58 29.8591C58 20.6101 53.6804 12.3711 46.9509 7.05413C46.9724 7.91953 46.7637 8.80154 46.2998 9.6061C45.703 10.641 44.7842 11.3737 43.7432 11.7505Z" fill="#FFE1BD"/>
</g>
<ellipse cx="2.83752" cy="2.83584" rx="2.83752" ry="2.83584" transform="matrix(0.499556 -0.866281 -0.865769 -0.500444 43.125 11.0477)" fill="#FFE1BD"/>
<path d="M16.5665 38.5331V36.2081C17.6332 35.3247 18.6665 34.4497 19.6665 33.5831C20.6832 32.7164 21.5832 31.8581 22.3665 31.0081C23.1665 30.1581 23.7998 29.3331 24.2665 28.5331C24.7498 27.7164 24.9915 26.9247 24.9915 26.1581C24.9915 25.4414 24.7915 24.8081 24.3915 24.2581C24.0082 23.7081 23.3665 23.4331 22.4665 23.4331C21.5498 23.4331 20.8582 23.7331 20.3915 24.3331C19.9248 24.9331 19.6915 25.6581 19.6915 26.5081H16.5915C16.6248 25.2247 16.9082 24.1581 17.4415 23.3081C17.9748 22.4414 18.6832 21.7997 19.5665 21.3831C20.4498 20.9497 21.4415 20.7331 22.5415 20.7331C24.3248 20.7331 25.7082 21.2247 26.6915 22.2081C27.6915 23.1747 28.1915 24.4331 28.1915 25.9831C28.1915 26.9497 27.9665 27.8914 27.5165 28.8081C27.0832 29.7247 26.5082 30.6081 25.7915 31.4581C25.0748 32.3081 24.2998 33.1081 23.4665 33.8581C22.6332 34.5914 21.8248 35.2747 21.0415 35.9081H28.6165V38.5331H16.5665ZM32.054 38.5331L38.654 23.7581H30.029V21.0331H41.954V23.3081L35.379 38.5331H32.054Z" fill="#FFE1BD"/>
<defs>
<filter id="filter0_b_414_1749" x="-40" y="-39.1753" width="138" height="124.973" filterUnits="userSpaceOnUse" color-interpolation-filters="sRGB">
<feFlood flood-opacity="0" result="BackgroundImageFix"/>
<feGaussianBlur in="BackgroundImageFix" stdDeviation="20"/>
<feComposite in2="SourceAlpha" operator="in" result="effect1_backgroundBlur_414_1749"/>
<feBlend mode="normal" in="SourceGraphic" in2="effect1_backgroundBlur_414_1749" result="shape"/>
</filter>
</defs>
</svg>
