<svg width="72" height="17" viewBox="0 0 72 17" fill="none" xmlns="http://www.w3.org/2000/svg">
<path d="M63.6474 0.834961L65.3569 6.25712H70.8887L66.4134 9.60819L68.1228 15.0303L63.6474 11.6793L59.172 15.0303L60.8815 9.60819L56.4061 6.25712H61.938L63.6474 0.834961Z" fill="#E8AD3A"/>
<path d="M44.8364 0.834961L46.5458 6.25712H52.0777L47.6023 9.60819L49.3118 15.0303L44.8364 11.6793L40.361 15.0303L42.0704 9.60819L37.5951 6.25712H43.1269L44.8364 0.834961Z" fill="#E8AD3A"/>
<path d="M26.9213 0.834961L28.6308 6.25712H34.1627L29.6873 9.60819L31.3967 15.0303L26.9213 11.6793L22.446 15.0303L24.1554 9.60819L19.68 6.25712H25.2119L26.9213 0.834961Z" fill="#E8AD3A"/>
<path d="M8.1108 0.834961L9.82024 6.25712H15.3521L10.8767 9.60819L12.5862 15.0303L8.1108 11.6793L3.63542 15.0303L5.34486 9.60819L0.869481 6.25712H6.40136L8.1108 0.834961Z" fill="#E8AD3A"/>
</svg>
