<svg width="72" height="16" viewBox="0 0 72 16" fill="none" xmlns="http://www.w3.org/2000/svg">
<path d="M63.6474 0L65.3569 5.39174H70.8887L66.4134 8.72402L68.1228 14.1158L63.6474 10.7835L59.172 14.1158L60.8815 8.72402L56.4061 5.39174H61.938L63.6474 0Z" fill="#F0F0F0"/>
<path d="M44.8364 0L46.5458 5.39174H52.0777L47.6023 8.72402L49.3118 14.1158L44.8364 10.7835L40.361 14.1158L42.0704 8.72402L37.5951 5.39174H43.1269L44.8364 0Z" fill="#E8AD3A"/>
<path d="M26.9213 0L28.6308 5.39174H34.1627L29.6873 8.72402L31.3967 14.1158L26.9213 10.7835L22.446 14.1158L24.1554 8.72402L19.68 5.39174H25.2119L26.9213 0Z" fill="#E8AD3A"/>
<path d="M8.1108 0L9.82024 5.39174H15.3521L10.8767 8.72402L12.5862 14.1158L8.1108 10.7835L3.63542 14.1158L5.34486 8.72402L0.869481 5.39174H6.40136L8.1108 0Z" fill="#E8AD3A"/>
</svg>
