<svg width="26" height="25" viewBox="0 0 26 25" fill="none" xmlns="http://www.w3.org/2000/svg">
<path d="M10.5401 11.5757C10.5401 10.2303 10.654 8.71573 11.0179 7.30478C11.383 5.88908 11.9809 4.64363 12.8956 3.76492C13.9106 2.78857 15.3391 2.24086 16.9185 1.97891C18.4905 1.71935 20.1368 1.75745 21.4885 1.88366C22.1461 1.93942 22.7624 2.21616 23.2291 2.66532C23.6958 3.11448 23.9832 3.70738 24.0408 4.34001C24.1721 5.64023 24.2117 7.22144 23.9418 8.73597C23.6695 10.2553 23.1001 11.6281 22.0851 12.6056C21.1704 13.4856 19.8744 14.0618 18.4014 14.4131C16.9346 14.7631 15.3589 14.8739 13.9601 14.8739C12.7223 14.8739 11.7073 15.8407 11.7012 17.0338C11.6912 19.0519 11.4288 21.3916 10.5426 23.1895C10.4938 23.1462 10.4609 23.0891 10.4485 23.0264C10.185 21.955 9.86649 20.8968 9.49414 19.8556C9.31544 19.3594 9.10588 18.8739 8.86658 18.4018C8.64625 17.9791 8.38135 17.56 8.06076 17.2505C7.73893 16.9409 7.30323 16.6861 6.86257 16.4741C6.37141 16.2439 5.8663 16.0423 5.34997 15.8705C4.26628 15.5132 3.16543 15.2061 2.05121 14.9501C1.98711 14.938 1.92862 14.9068 1.88411 14.8608C3.7532 14.0071 6.19167 13.757 8.29223 13.7487C8.88922 13.7452 9.46057 13.5148 9.88167 13.1078C10.3028 12.7007 10.5394 12.15 10.5401 11.5757ZM11.5823 2.50162C10.3433 3.69348 9.62659 5.28183 9.21564 6.87495C8.80345 8.47521 8.68214 10.1457 8.68338 11.5781C8.6821 11.6795 8.63974 11.7764 8.5653 11.8483C8.49086 11.9201 8.39023 11.9611 8.28481 11.9627C6.09265 11.971 3.31377 12.2246 1.06592 13.2569C0.221734 13.6451 -0.131041 14.4452 0.0434895 15.2037C0.208118 15.9133 0.804741 16.4956 1.61179 16.6849C2.59585 16.9159 3.7371 17.2147 4.72983 17.5541C5.22619 17.7232 5.67056 17.897 6.032 18.0708C6.40582 18.2518 6.63481 18.4042 6.74745 18.5138C6.86009 18.6209 7.01977 18.8412 7.20668 19.2008C7.3874 19.5484 7.56812 19.9747 7.74388 20.4522C8.09542 21.4059 8.40487 22.5037 8.64501 23.4491C8.84182 24.2254 9.44711 24.8005 10.1861 24.9577C10.9746 25.1267 11.8064 24.7874 12.2099 23.9754C13.2831 21.8167 13.5467 19.1484 13.5591 17.0421C13.5591 16.8349 13.7411 16.6599 13.9589 16.6599C15.4468 16.6599 17.1846 16.5432 18.8482 16.1467C20.5069 15.7502 22.1581 15.0608 23.3984 13.8678C24.7848 12.5342 25.4631 10.7613 25.7713 9.0384C26.0807 7.31074 26.03 5.5545 25.8889 4.16618C25.7893 3.12166 25.3126 2.14367 24.5416 1.40198C23.7705 0.660301 22.7538 0.201768 21.668 0.10599C20.2247 -0.028556 18.4002 -0.0773735 16.6029 0.219103C14.8118 0.51558 12.9687 1.16926 11.5823 2.50162ZM18.5697 3.56965C18.898 3.56965 19.2129 3.6951 19.445 3.91839C19.6771 4.14168 19.8075 4.44454 19.8075 4.76032C19.8075 5.07611 19.6771 5.37896 19.445 5.60225C19.2129 5.82555 18.898 5.95099 18.5697 5.95099C18.2415 5.95099 17.9266 5.82555 17.6945 5.60225C17.4623 5.37896 17.3319 5.07611 17.3319 4.76032C17.3319 4.44454 17.4623 4.14168 17.6945 3.91839C17.9266 3.6951 18.2415 3.56965 18.5697 3.56965Z" fill="white"/>
</svg>
